<svg width="160" height="83" viewBox="0 0 160 83" fill="none" xmlns="http://www.w3.org/2000/svg">
<path fill-rule="evenodd" clip-rule="evenodd" d="M69.553 16.892L75.413 14.162C75.7246 14.0171 76.066 13.9479 76.4094 13.9601C76.7528 13.9723 77.0885 14.0654 77.389 14.232L78.439 14.816C78.4928 14.8456 78.5538 14.8595 78.6151 14.8564C78.6764 14.8532 78.7356 14.833 78.786 14.798L81.326 13.03C81.5672 12.8607 81.8406 12.7427 82.1292 12.6832C82.4178 12.6237 82.7155 12.6239 83.004 12.684C83.593 12.804 84.093 13.15 84.412 13.659L84.72 14.149C84.7466 14.1907 84.7823 14.2259 84.8243 14.252C84.8664 14.278 84.9138 14.2942 84.963 14.2994C85.0122 14.3046 85.062 14.2986 85.1085 14.2819C85.1551 14.2653 85.1973 14.2383 85.232 14.203L86.659 12.743C86.9123 12.4821 87.2271 12.2891 87.5745 12.1817C87.9219 12.0742 88.2907 12.0557 88.647 12.128C89.0035 12.1997 89.3363 12.3598 89.6148 12.5935C89.8933 12.8273 90.1086 13.1273 90.241 13.466L90.334 13.703C90.3522 13.7485 90.3802 13.7894 90.4162 13.8226C90.4521 13.8559 90.495 13.8807 90.5418 13.8953C90.5886 13.9099 90.638 13.9138 90.6865 13.9068C90.735 13.8999 90.7813 13.8822 90.822 13.855L91.248 13.569C91.695 13.2669 92.2386 13.1422 92.7726 13.2193C93.3066 13.2964 93.7927 13.5697 94.136 13.986L96.546 16.892H69.553ZM97.54 17.359C97.5666 17.3026 97.5764 17.2398 97.5685 17.1779C97.5605 17.1161 97.535 17.0578 97.495 17.01L94.64 13.567C94.1934 13.0252 93.5609 12.6694 92.866 12.5689C92.1711 12.4685 91.4637 12.6308 90.882 13.024L90.791 13.085C90.6063 12.6778 90.3273 12.3204 89.9771 12.0424C89.6269 11.7643 89.2155 11.5736 88.777 11.486C88.3135 11.3909 87.8335 11.4141 87.3813 11.5536C86.9291 11.6931 86.5194 11.9443 86.19 12.284L85.054 13.447L84.968 13.31C84.7655 12.9846 84.4984 12.7041 84.1834 12.4859C83.8683 12.2677 83.5119 12.1162 83.136 12.041C82.7605 11.9627 82.3729 11.9624 81.9972 12.04C81.6216 12.1175 81.2658 12.2714 80.952 12.492L78.579 14.143L77.707 13.659C77.3161 13.4421 76.8794 13.3207 76.4326 13.3047C75.9857 13.2887 75.5415 13.3786 75.136 13.567L67.935 16.922C67.8675 16.9536 67.8128 17.0074 67.7799 17.0743C67.747 17.1412 67.7378 17.2174 67.754 17.2902C67.7702 17.363 67.8108 17.4281 67.8689 17.4748C67.9271 17.5215 67.9994 17.547 68.074 17.547H97.243C97.3053 17.5472 97.3663 17.5296 97.4189 17.4963C97.4715 17.463 97.5136 17.4154 97.54 17.359Z" fill="#282B2D"/>
<path fill-rule="evenodd" clip-rule="evenodd" d="M110.825 1.128C111.041 0.827998 111.378 0.655998 111.748 0.655998H111.754C112.127 0.657998 112.464 0.834 112.679 1.139L113.95 2.938C113.975 2.97325 114.007 3.00324 114.043 3.02624C114.08 3.04925 114.12 3.06482 114.163 3.07207C114.205 3.07931 114.249 3.07809 114.291 3.06847C114.333 3.05885 114.373 3.04102 114.408 3.016L115.692 2.098C115.887 1.95846 116.122 1.88419 116.361 1.88581C116.601 1.88742 116.835 1.96484 117.028 2.107L119.969 4.263H108.565L110.825 1.129V1.128ZM107.925 4.918H120.97C121.039 4.91786 121.106 4.89596 121.162 4.85541C121.218 4.81486 121.26 4.75773 121.281 4.69214C121.303 4.62656 121.303 4.55587 121.282 4.49013C121.261 4.42439 121.22 4.36696 121.164 4.326L117.416 1.576C117.111 1.35233 116.743 1.23082 116.365 1.22884C115.987 1.22686 115.618 1.34453 115.311 1.565L114.295 2.29L113.215 0.759998C113.052 0.525342 112.834 0.333682 112.58 0.201351C112.327 0.0690199 112.045 -5.84251e-05 111.759 3.70772e-08H111.749C111.165 3.70772e-08 110.636 0.271999 110.294 0.744999L107.658 4.398C107.622 4.44696 107.601 4.5048 107.597 4.56511C107.592 4.62542 107.604 4.68582 107.632 4.7396C107.66 4.79338 107.702 4.83844 107.753 4.86975C107.805 4.90107 107.865 4.91843 107.925 4.918Z" fill="#282B2D"/>
<path fill-rule="evenodd" clip-rule="evenodd" d="M57.815 81.31V81.559H60.735V81.231H57.815V81.31Z" fill="#282B2D"/>
<path fill-rule="evenodd" clip-rule="evenodd" d="M117.99 81.56H123.949V81.231H117.99V81.56Z" fill="#282B2D"/>
<path fill-rule="evenodd" clip-rule="evenodd" d="M97.135 81.56H103.094V81.231H97.135V81.56Z" fill="#282B2D"/>
<path fill-rule="evenodd" clip-rule="evenodd" d="M111.677 81.56H114.656V81.231H111.677V81.56Z" fill="#282B2D"/>
<path fill-rule="evenodd" clip-rule="evenodd" d="M69.274 81.56H74.979V81.231H69.274V81.56Z" fill="#282B2D"/>
<path fill-rule="evenodd" clip-rule="evenodd" d="M108.47 80.314L109.448 78.212L108.852 77.936L107.881 80.024L107.375 78.113L106.741 78.281L107.261 80.243L105.157 77.896L104.669 78.334L107.715 81.732L110.663 79.44L110.26 78.922L108.47 80.314Z" fill="#282B2D"/>
<path fill-rule="evenodd" clip-rule="evenodd" d="M66.084 80.52L66.706 77.946L66.068 77.791L65.508 80.112L64.844 78.56L64.24 78.818L64.966 80.513L63.131 79.086L62.729 79.604L65.665 81.889L67.441 80.066L66.971 79.608L66.084 80.52Z" fill="#282B2D"/>
<path fill-rule="evenodd" clip-rule="evenodd" d="M93.286 64.658C93.016 66.87 92.552 68.798 91.898 70.446C91.243 72.094 90.352 73.402 89.224 74.372C88.096 75.342 86.697 75.827 85.027 75.827C83.311 75.827 81.902 75.343 80.797 74.372C79.69 73.402 78.81 72.094 78.157 70.446C77.502 68.799 77.04 66.87 76.769 64.658C76.4908 62.3218 76.3553 59.9707 76.363 57.618C76.363 55.137 76.498 52.802 76.769 50.612C77.04 48.424 77.502 46.495 78.157 44.825C78.81 43.155 79.69 41.835 80.797 40.865C81.902 39.894 83.311 39.409 85.027 39.409C86.697 39.409 88.097 39.894 89.224 40.865C90.352 41.835 91.244 43.155 91.898 44.825C92.552 46.495 93.015 48.424 93.286 50.612C93.557 52.802 93.692 55.137 93.692 57.618C93.692 60.1 93.557 62.447 93.286 64.658ZM100.766 66.012C101.194 63.125 101.409 60.326 101.409 57.618C101.409 54.911 101.194 52.113 100.765 49.224C100.336 46.338 99.525 43.684 98.329 41.271C97.133 38.857 95.462 36.871 93.319 35.314C91.176 33.757 88.412 32.978 85.027 32.978C81.642 32.978 78.878 33.757 76.735 35.314C74.592 36.871 72.921 38.857 71.726 41.271C70.53 43.685 69.718 46.338 69.289 49.224C68.8686 52.0024 68.6536 54.808 68.646 57.618C68.646 60.326 68.86 63.125 69.289 66.012C69.719 68.9 70.53 71.552 71.726 73.966C72.921 76.38 74.592 78.366 76.736 79.923C77.5151 80.4826 78.3631 80.9393 79.259 81.282L80.063 81.559C81.537 82.019 83.187 82.258 85.027 82.258C86.868 82.258 88.517 82.018 89.991 81.558L90.917 81.231C91.787 80.883 92.592 80.451 93.319 79.923C95.462 78.366 97.133 76.38 98.329 73.966C99.524 71.552 100.337 68.9 100.766 66.012Z" fill="#282B2D"/>
<path fill-rule="evenodd" clip-rule="evenodd" d="M45.174 7.644C45.3338 7.46182 45.5325 7.31791 45.7555 7.22292C45.9784 7.12793 46.2198 7.0843 46.4619 7.09525C46.704 7.10619 46.9405 7.17144 47.154 7.28616C47.3674 7.40089 47.5523 7.56215 47.695 7.758L49.215 9.837C49.267 9.909 49.347 9.957 49.435 9.968C49.4785 9.97457 49.5229 9.97209 49.5654 9.96074C49.6079 9.94938 49.6476 9.92939 49.682 9.902L50.575 9.2C50.8734 8.96505 51.2449 8.84261 51.6245 8.85413C52.004 8.86565 52.3675 9.0104 52.651 9.263L54.228 10.665C54.2785 10.7096 54.3414 10.7376 54.4083 10.7453C54.4751 10.753 54.5428 10.74 54.602 10.708L55.782 10.073C55.9983 9.95526 56.2387 9.88879 56.4848 9.87874C56.7308 9.86868 56.9759 9.9153 57.201 10.015L61.265 11.799H41.514L45.174 7.644ZM40.788 12.455H62.827C62.9022 12.4549 62.975 12.4289 63.0334 12.3815C63.0917 12.3341 63.1319 12.268 63.1474 12.1945C63.1629 12.1209 63.1526 12.0443 63.1183 11.9774C63.084 11.9105 63.0278 11.8574 62.959 11.827L57.465 9.415C57.1488 9.27497 56.8047 9.20937 56.4592 9.22324C56.1137 9.23711 55.776 9.33008 55.472 9.495L54.492 10.023L53.086 8.773C52.6879 8.41788 52.1774 8.21432 51.6442 8.19804C51.111 8.18177 50.589 8.35382 50.17 8.684L49.544 9.176L48.224 7.372C48.0241 7.09645 47.7645 6.86967 47.4645 6.70862C47.1646 6.54757 46.8321 6.45642 46.492 6.442C46.152 6.42541 45.8125 6.48586 45.4991 6.61885C45.1857 6.75184 44.9064 6.95392 44.682 7.21L40.542 11.911C40.501 11.9585 40.4744 12.0168 40.4654 12.0789C40.4564 12.141 40.4654 12.2044 40.4913 12.2616C40.5171 12.3188 40.5588 12.3674 40.6114 12.4016C40.664 12.4359 40.7253 12.4544 40.788 12.455Z" fill="#282B2D"/>
<path fill-rule="evenodd" clip-rule="evenodd" d="M10.434 81.56H13.712V81.231H10.434V81.56Z" fill="#282B2D"/>
<path fill-rule="evenodd" clip-rule="evenodd" d="M28.61 81.56H34.568V81.231H28.61V81.56Z" fill="#282B2D"/>
<path fill-rule="evenodd" clip-rule="evenodd" d="M37.548 81.56H43.507V81.231H37.548V81.56Z" fill="#282B2D"/>
<path fill-rule="evenodd" clip-rule="evenodd" d="M1.81299 31.538H1.99699V29.618H1.81299V31.538Z" fill="#282B2D"/>
<path fill-rule="evenodd" clip-rule="evenodd" d="M1.81299 35.5H1.99699V33.58H1.81299V35.5Z" fill="#282B2D"/>
<path fill-rule="evenodd" clip-rule="evenodd" d="M1.81299 39.462H1.99699V37.542H1.81299V39.462Z" fill="#282B2D"/>
<path fill-rule="evenodd" clip-rule="evenodd" d="M1.81299 43.425H1.99699V41.505H1.81299V43.425Z" fill="#282B2D"/>
<path fill-rule="evenodd" clip-rule="evenodd" d="M1.81299 47.386H1.99699V45.467H1.81299V47.386Z" fill="#282B2D"/>
<path fill-rule="evenodd" clip-rule="evenodd" d="M3.52002 30.334H3.70402V28.414H3.52002V30.334Z" fill="#282B2D"/>
<path fill-rule="evenodd" clip-rule="evenodd" d="M3.52002 34.295H3.70402V32.376H3.52002V34.295Z" fill="#282B2D"/>
<path fill-rule="evenodd" clip-rule="evenodd" d="M3.52002 38.258H3.70402V36.338H3.52002V38.258Z" fill="#282B2D"/>
<path fill-rule="evenodd" clip-rule="evenodd" d="M3.52002 42.22H3.70402V40.3H3.52002V42.22Z" fill="#282B2D"/>
<path fill-rule="evenodd" clip-rule="evenodd" d="M3.52002 46.182H3.70402V44.263H3.52002V46.182Z" fill="#282B2D"/>
<path fill-rule="evenodd" clip-rule="evenodd" d="M3.52002 50.145H3.70402V48.225H3.52002V50.145Z" fill="#282B2D"/>
<path fill-rule="evenodd" clip-rule="evenodd" d="M5.39099 51.35H5.57499V49.43H5.39099V51.35Z" fill="#282B2D"/>
<path fill-rule="evenodd" clip-rule="evenodd" d="M15.757 23.613H15.941V21.693H15.757V23.613Z" fill="#282B2D"/>
<path fill-rule="evenodd" clip-rule="evenodd" d="M15.757 27.576H15.941V25.656H15.757V27.576Z" fill="#282B2D"/>
<path fill-rule="evenodd" clip-rule="evenodd" d="M15.757 31.538H15.941V29.618H15.757V31.538Z" fill="#282B2D"/>
<path fill-rule="evenodd" clip-rule="evenodd" d="M15.757 35.5H15.941V33.58H15.757V35.5Z" fill="#282B2D"/>
<path fill-rule="evenodd" clip-rule="evenodd" d="M15.757 39.462H15.941V37.542H15.757V39.462Z" fill="#282B2D"/>
<path fill-rule="evenodd" clip-rule="evenodd" d="M15.757 43.425H15.941V41.505H15.757V43.425Z" fill="#282B2D"/>
<path fill-rule="evenodd" clip-rule="evenodd" d="M15.757 47.386H15.941V45.467H15.757V47.386Z" fill="#282B2D"/>
<path fill-rule="evenodd" clip-rule="evenodd" d="M15.757 51.35H15.941V49.43H15.757V51.35Z" fill="#282B2D"/>
<path fill-rule="evenodd" clip-rule="evenodd" d="M17.464 22.409H17.648V20.489H17.464V22.409Z" fill="#282B2D"/>
<path fill-rule="evenodd" clip-rule="evenodd" d="M17.464 26.372H17.648V24.452H17.464V26.372Z" fill="#282B2D"/>
<path fill-rule="evenodd" clip-rule="evenodd" d="M17.464 30.334H17.648V28.414H17.464V30.334Z" fill="#282B2D"/>
<path fill-rule="evenodd" clip-rule="evenodd" d="M17.464 34.295H17.648V32.376H17.464V34.295Z" fill="#282B2D"/>
<path fill-rule="evenodd" clip-rule="evenodd" d="M17.464 38.258H17.648V36.338H17.464V38.258Z" fill="#282B2D"/>
<path fill-rule="evenodd" clip-rule="evenodd" d="M17.464 42.22H17.648V40.3H17.464V42.22Z" fill="#282B2D"/>
<path fill-rule="evenodd" clip-rule="evenodd" d="M17.464 46.182H17.648V44.263H17.464V46.182Z" fill="#282B2D"/>
<path fill-rule="evenodd" clip-rule="evenodd" d="M17.464 50.145H17.648V48.225H17.464V50.145Z" fill="#282B2D"/>
<path fill-rule="evenodd" clip-rule="evenodd" d="M19.334 23.613H19.518V21.693H19.334V23.613Z" fill="#282B2D"/>
<path fill-rule="evenodd" clip-rule="evenodd" d="M19.334 27.576H19.518V25.656H19.334V27.576Z" fill="#282B2D"/>
<path fill-rule="evenodd" clip-rule="evenodd" d="M19.334 31.538H19.518V29.618H19.334V31.538Z" fill="#282B2D"/>
<path fill-rule="evenodd" clip-rule="evenodd" d="M19.334 35.5H19.518V33.58H19.334V35.5Z" fill="#282B2D"/>
<path fill-rule="evenodd" clip-rule="evenodd" d="M19.334 39.462H19.518V37.542H19.334V39.462Z" fill="#282B2D"/>
<path fill-rule="evenodd" clip-rule="evenodd" d="M19.334 43.425H19.518V41.505H19.334V43.425Z" fill="#282B2D"/>
<path fill-rule="evenodd" clip-rule="evenodd" d="M19.334 47.386H19.518V45.467H19.334V47.386Z" fill="#282B2D"/>
<path fill-rule="evenodd" clip-rule="evenodd" d="M19.334 51.35H19.518V49.43H19.334V51.35Z" fill="#282B2D"/>
<path fill-rule="evenodd" clip-rule="evenodd" d="M21.042 22.409H21.225V20.489H21.042V22.409Z" fill="#282B2D"/>
<path fill-rule="evenodd" clip-rule="evenodd" d="M21.042 26.372H21.225V24.452H21.042V26.372Z" fill="#282B2D"/>
<path fill-rule="evenodd" clip-rule="evenodd" d="M21.042 30.334H21.225V28.414H21.042V30.334Z" fill="#282B2D"/>
<path fill-rule="evenodd" clip-rule="evenodd" d="M21.042 34.295H21.225V32.376H21.042V34.295Z" fill="#282B2D"/>
<path fill-rule="evenodd" clip-rule="evenodd" d="M21.042 38.258H21.225V36.338H21.042V38.258Z" fill="#282B2D"/>
<path fill-rule="evenodd" clip-rule="evenodd" d="M21.042 42.22H21.225V40.3H21.042V42.22Z" fill="#282B2D"/>
<path fill-rule="evenodd" clip-rule="evenodd" d="M21.042 46.182H21.225V44.263H21.042V46.182Z" fill="#282B2D"/>
<path fill-rule="evenodd" clip-rule="evenodd" d="M21.042 50.145H21.225V48.225H21.042V50.145Z" fill="#282B2D"/>
<path fill-rule="evenodd" clip-rule="evenodd" d="M22.912 23.613H23.095V21.693H22.912V23.613Z" fill="#282B2D"/>
<path fill-rule="evenodd" clip-rule="evenodd" d="M22.912 27.576H23.095V25.656H22.912V27.576Z" fill="#282B2D"/>
<path fill-rule="evenodd" clip-rule="evenodd" d="M22.912 31.538H23.095V29.618H22.912V31.538Z" fill="#282B2D"/>
<path fill-rule="evenodd" clip-rule="evenodd" d="M22.912 35.5H23.095V33.58H22.912V35.5Z" fill="#282B2D"/>
<path fill-rule="evenodd" clip-rule="evenodd" d="M22.912 39.462H23.095V37.542H22.912V39.462Z" fill="#282B2D"/>
<path fill-rule="evenodd" clip-rule="evenodd" d="M22.912 43.425H23.095V41.505H22.912V43.425Z" fill="#282B2D"/>
<path fill-rule="evenodd" clip-rule="evenodd" d="M22.912 47.386H23.095V45.467H22.912V47.386Z" fill="#282B2D"/>
<path fill-rule="evenodd" clip-rule="evenodd" d="M22.912 51.35H23.095V49.43H22.912V51.35Z" fill="#282B2D"/>
<path fill-rule="evenodd" clip-rule="evenodd" d="M31.773 50.145H31.957V48.225H31.773V50.145Z" fill="#282B2D"/>
<path fill-rule="evenodd" clip-rule="evenodd" d="M33.643 51.35H33.827V49.43H33.643V51.35Z" fill="#282B2D"/>
<path fill-rule="evenodd" clip-rule="evenodd" d="M7.099 53.947H7.282V52.028H7.099V53.947Z" fill="#282B2D"/>
<path fill-rule="evenodd" clip-rule="evenodd" d="M10.309 53.947H10.493V52.028H10.309V53.947Z" fill="#282B2D"/>
<path fill-rule="evenodd" clip-rule="evenodd" d="M13.886 53.947H14.07V52.028H13.886V53.947Z" fill="#282B2D"/>
<path fill-rule="evenodd" clip-rule="evenodd" d="M15.757 55.151H15.941V53.232H15.757V55.151Z" fill="#282B2D"/>
<path fill-rule="evenodd" clip-rule="evenodd" d="M15.757 59.114H15.941V57.194H15.757V59.114Z" fill="#282B2D"/>
<path fill-rule="evenodd" clip-rule="evenodd" d="M15.757 63.076H15.941V61.156H15.757V63.076Z" fill="#282B2D"/>
<path fill-rule="evenodd" clip-rule="evenodd" d="M15.757 67.038H15.941V65.118H15.757V67.038Z" fill="#282B2D"/>
<path fill-rule="evenodd" clip-rule="evenodd" d="M15.757 71H15.941V69.082H15.757V71Z" fill="#282B2D"/>
<path fill-rule="evenodd" clip-rule="evenodd" d="M15.757 74.963H15.941V73.043H15.757V74.963Z" fill="#282B2D"/>
<path fill-rule="evenodd" clip-rule="evenodd" d="M15.757 78.925H15.941V77.005H15.757V78.925Z" fill="#282B2D"/>
<path fill-rule="evenodd" clip-rule="evenodd" d="M17.464 53.947H17.648V52.028H17.464V53.947Z" fill="#282B2D"/>
<path fill-rule="evenodd" clip-rule="evenodd" d="M17.464 57.91H17.648V55.99H17.464V57.91Z" fill="#282B2D"/>
<path fill-rule="evenodd" clip-rule="evenodd" d="M17.464 61.871H17.648V59.952H17.464V61.871Z" fill="#282B2D"/>
<path fill-rule="evenodd" clip-rule="evenodd" d="M17.464 65.835H17.648V63.915H17.464V65.835Z" fill="#282B2D"/>
<path fill-rule="evenodd" clip-rule="evenodd" d="M17.464 69.796H17.648V67.877H17.464V69.796Z" fill="#282B2D"/>
<path fill-rule="evenodd" clip-rule="evenodd" d="M17.464 73.758H17.648V71.84H17.464V73.758Z" fill="#282B2D"/>
<path fill-rule="evenodd" clip-rule="evenodd" d="M17.464 77.72H17.648V75.802H17.464V77.72Z" fill="#282B2D"/>
<path fill-rule="evenodd" clip-rule="evenodd" d="M19.334 55.151H19.518V53.232H19.334V55.151Z" fill="#282B2D"/>
<path fill-rule="evenodd" clip-rule="evenodd" d="M19.334 59.114H19.518V57.194H19.334V59.114Z" fill="#282B2D"/>
<path fill-rule="evenodd" clip-rule="evenodd" d="M19.334 63.076H19.518V61.156H19.334V63.076Z" fill="#282B2D"/>
<path fill-rule="evenodd" clip-rule="evenodd" d="M19.334 67.038H19.518V65.118H19.334V67.038Z" fill="#282B2D"/>
<path fill-rule="evenodd" clip-rule="evenodd" d="M19.334 71H19.518V69.082H19.334V71Z" fill="#282B2D"/>
<path fill-rule="evenodd" clip-rule="evenodd" d="M19.334 74.963H19.518V73.043H19.334V74.963Z" fill="#282B2D"/>
<path fill-rule="evenodd" clip-rule="evenodd" d="M19.334 78.925H19.518V77.005H19.334V78.925Z" fill="#282B2D"/>
<path fill-rule="evenodd" clip-rule="evenodd" d="M21.042 53.947H21.225V52.028H21.042V53.947Z" fill="#282B2D"/>
<path fill-rule="evenodd" clip-rule="evenodd" d="M21.042 57.91H21.225V55.99H21.042V57.91Z" fill="#282B2D"/>
<path fill-rule="evenodd" clip-rule="evenodd" d="M21.042 61.871H21.225V59.952H21.042V61.871Z" fill="#282B2D"/>
<path fill-rule="evenodd" clip-rule="evenodd" d="M21.042 65.835H21.225V63.915H21.042V65.835Z" fill="#282B2D"/>
<path fill-rule="evenodd" clip-rule="evenodd" d="M21.042 69.796H21.225V67.877H21.042V69.796Z" fill="#282B2D"/>
<path fill-rule="evenodd" clip-rule="evenodd" d="M21.042 73.758H21.225V71.84H21.042V73.758Z" fill="#282B2D"/>
<path fill-rule="evenodd" clip-rule="evenodd" d="M21.042 77.72H21.225V75.802H21.042V77.72Z" fill="#282B2D"/>
<path fill-rule="evenodd" clip-rule="evenodd" d="M22.912 55.151H23.095V53.232H22.912V55.151Z" fill="#282B2D"/>
<path fill-rule="evenodd" clip-rule="evenodd" d="M22.912 59.114H23.095V57.194H22.912V59.114Z" fill="#282B2D"/>
<path fill-rule="evenodd" clip-rule="evenodd" d="M22.912 63.076H23.095V61.156H22.912V63.076Z" fill="#282B2D"/>
<path fill-rule="evenodd" clip-rule="evenodd" d="M22.912 67.038H23.095V65.118H22.912V67.038Z" fill="#282B2D"/>
<path fill-rule="evenodd" clip-rule="evenodd" d="M22.912 71H23.095V69.082H22.912V71Z" fill="#282B2D"/>
<path fill-rule="evenodd" clip-rule="evenodd" d="M22.912 74.963H23.095V73.043H22.912V74.963Z" fill="#282B2D"/>
<path fill-rule="evenodd" clip-rule="evenodd" d="M22.912 78.925H23.095V77.005H22.912V78.925Z" fill="#282B2D"/>
<path fill-rule="evenodd" clip-rule="evenodd" d="M26.489 67.038H26.673V65.118H26.489V67.038Z" fill="#282B2D"/>
<path fill-rule="evenodd" clip-rule="evenodd" d="M28.196 65.835H28.38V63.915H28.196V65.835Z" fill="#282B2D"/>
<path fill-rule="evenodd" clip-rule="evenodd" d="M31.773 53.947H31.957V52.028H31.773V53.947Z" fill="#282B2D"/>
<path fill-rule="evenodd" clip-rule="evenodd" d="M31.773 57.91H31.957V55.99H31.773V57.91Z" fill="#282B2D"/>
<path fill-rule="evenodd" clip-rule="evenodd" d="M31.773 61.871H31.957V59.952H31.773V61.871Z" fill="#282B2D"/>
<path fill-rule="evenodd" clip-rule="evenodd" d="M33.643 55.151H33.827V53.232H33.643V55.151Z" fill="#282B2D"/>
<path fill-rule="evenodd" clip-rule="evenodd" d="M33.643 59.114H33.827V57.194H33.643V59.114Z" fill="#282B2D"/>
<path fill-rule="evenodd" clip-rule="evenodd" d="M50.505 63.98H36.154L50.37 43.133H50.505V63.98ZM34.268 59.7C34.268 60.646 34.111 61.556 33.827 62.409V61.158H33.644V62.908C33.2482 63.8852 32.6764 64.7813 31.957 65.552V63.916H31.774V65.745C31.3138 66.208 30.8025 66.6173 30.25 66.965V65.12H30.067V67.04H30.136C29.566 67.387 28.951 67.67 28.304 67.878H28.196V67.913C27.3796 68.1642 26.5302 68.2916 25.676 68.291H24.803V67.878H24.619V68.291H24.504V64.616H24.619V65.836H24.803V64.616H25.677C26.5885 64.6144 27.4817 64.3596 28.2568 63.88C29.032 63.4004 29.6587 62.7149 30.067 61.9V63.078H30.25V61.49C30.4756 60.9198 30.592 60.3122 30.593 59.699V49.259C30.5935 48.7719 30.7872 48.3048 31.1316 47.9603C31.4759 47.6157 31.9429 47.4218 32.43 47.421C32.9173 47.4215 33.3845 47.6153 33.7291 47.9599C34.0737 48.3045 34.2675 48.7717 34.268 49.259V59.7ZM23.858 63.149H23.845V69.489H23.859V80.887H21.225V79.764H21.042V80.887H17.648V79.764H17.464V80.887H15.15V54.81H15.149V22.975C15.1507 21.8506 15.5871 20.7705 16.3669 19.9605C17.1467 19.1505 18.2095 18.6734 19.333 18.629V19.651H19.517V18.621C20.6689 18.626 21.772 19.0868 22.5852 19.9026C23.3985 20.7185 23.8557 21.8231 23.857 22.975V63.148L23.858 63.149ZM14.49 54.81H12.363V53.232H12.18V54.81H9.745C9.421 54.81 9.101 54.792 8.785 54.759V53.232H8.603V54.736C7.54517 54.6028 6.51932 54.2832 5.573 53.792V53.232H5.391V53.697C4.78535 53.3644 4.21939 52.9642 3.704 52.504V52.028H3.52V52.335C2.9318 51.7823 2.41935 51.1542 1.996 50.467V49.427H1.813V50.153C1.05218 48.7999 0.653325 47.2734 0.655001 45.721V29.345C0.655001 28.487 1.121 27.738 1.813 27.332V27.576H1.996V27.235C2.298 27.091 2.635 27.009 2.991 27.009C3.6103 27.0098 4.20401 27.2562 4.64192 27.6941C5.07984 28.132 5.32621 28.7257 5.327 29.345V45.722C5.327 45.965 5.352 46.202 5.39 46.435V47.385H5.573V47.164C5.86258 47.9955 6.39353 48.7218 7.098 49.25V50.144H7.28V49.386C7.68454 49.6571 8.13128 49.8592 8.602 49.984V51.349H8.785V50.03C9.094 50.099 9.414 50.138 9.744 50.138H10.309V50.143H10.492V50.138H12.179V51.348H12.362V50.138H14.489V54.81H14.49ZM63.908 70.072V63.98H57.816V33.926H50.505L34.959 55.742L34.923 49.259C34.923 48.5978 34.6603 47.9637 34.1928 47.4962C33.7253 47.0287 33.0912 46.766 32.43 46.766C31.7688 46.766 31.1347 47.0287 30.6672 47.4962C30.1997 47.9637 29.937 48.5978 29.937 49.259V59.699C29.9357 60.8284 29.4864 61.9112 28.6878 62.7098C27.8892 63.5084 26.8064 63.9577 25.677 63.959H24.514V22.975C24.514 21.6463 23.9862 20.372 23.0466 19.4324C22.107 18.4928 20.8327 17.965 19.504 17.965C18.1753 17.965 16.901 18.4928 15.9614 19.4324C15.0218 20.372 14.494 21.6463 14.494 22.975V49.21H14.49V49.483H9.745C8.74785 49.4819 7.79184 49.0854 7.08674 48.3803C6.38165 47.6752 5.98506 46.7192 5.984 45.722V29.345C5.984 28.5515 5.66877 27.7904 5.10766 27.2293C4.54656 26.6682 3.78553 26.353 2.992 26.353C2.19847 26.353 1.43745 26.6682 0.876337 27.2293C0.315228 27.7904 0 28.5515 0 29.345V45.722C0 51.095 4.37 55.466 9.745 55.466H14.49V55.55H14.495V81.542H19.672V81.559H22.651V81.542H24.514V68.945H25.677C27.237 68.945 28.804 68.594 30.197 67.952V70.072H50.505V81.231H49.465V81.559H56.089V81.231H57.816V70.073L63.908 70.072Z" fill="#282B2D"/>
<path fill-rule="evenodd" clip-rule="evenodd" d="M147.783 81.56H153.742V81.231H147.783V81.56Z" fill="#282B2D"/>
<path fill-rule="evenodd" clip-rule="evenodd" d="M138.846 81.56H141.825V81.231H138.846V81.56Z" fill="#282B2D"/>
<path fill-rule="evenodd" clip-rule="evenodd" d="M156.722 81.56H160V81.231H156.722V81.56Z" fill="#282B2D"/>
<path fill-rule="evenodd" clip-rule="evenodd" d="M149.756 54.284C149.866 54.284 149.956 54.189 149.956 54.073C149.956 54.0378 149.947 54.0032 149.93 53.9725C149.912 53.9417 149.888 53.9158 149.858 53.897C149.828 53.8763 149.793 53.8645 149.756 53.863C149.646 53.863 149.556 53.957 149.556 54.073C149.556 54.133 149.579 54.186 149.616 54.223C149.653 54.261 149.702 54.284 149.756 54.284Z" fill="#282B2D"/>
<path fill-rule="evenodd" clip-rule="evenodd" d="M150.923 55.967C151.033 55.967 151.123 55.872 151.123 55.757C151.123 55.64 151.033 55.547 150.923 55.547C150.813 55.547 150.723 55.64 150.723 55.757C150.723 55.872 150.813 55.967 150.923 55.967Z" fill="#282B2D"/>
<path fill-rule="evenodd" clip-rule="evenodd" d="M148.588 55.967C148.698 55.967 148.788 55.872 148.788 55.757C148.789 55.7301 148.784 55.7033 148.774 55.6782C148.765 55.653 148.75 55.6301 148.732 55.6106C148.713 55.5911 148.691 55.5754 148.666 55.5645C148.641 55.5536 148.615 55.5476 148.588 55.547C148.478 55.547 148.388 55.64 148.388 55.757C148.388 55.872 148.478 55.967 148.588 55.967Z" fill="#282B2D"/>
<path fill-rule="evenodd" clip-rule="evenodd" d="M146.254 55.967C146.364 55.967 146.453 55.872 146.453 55.757C146.454 55.7301 146.449 55.7033 146.439 55.6782C146.43 55.653 146.415 55.6301 146.396 55.6106C146.378 55.5911 146.356 55.5754 146.331 55.5645C146.306 55.5536 146.28 55.5476 146.253 55.547C146.143 55.547 146.053 55.64 146.053 55.757C146.053 55.872 146.144 55.967 146.254 55.967Z" fill="#282B2D"/>
<path fill-rule="evenodd" clip-rule="evenodd" d="M152.09 57.931C152.2 57.931 152.29 57.836 152.29 57.721C152.29 57.604 152.2 57.511 152.09 57.511C151.98 57.511 151.89 57.604 151.89 57.721C151.89 57.836 151.98 57.931 152.09 57.931Z" fill="#282B2D"/>
<path fill-rule="evenodd" clip-rule="evenodd" d="M149.756 57.931C149.866 57.931 149.956 57.836 149.956 57.721C149.956 57.604 149.866 57.511 149.756 57.511C149.646 57.511 149.556 57.604 149.556 57.721C149.556 57.836 149.646 57.931 149.756 57.931Z" fill="#282B2D"/>
<path fill-rule="evenodd" clip-rule="evenodd" d="M147.42 57.931C147.53 57.931 147.62 57.836 147.62 57.721C147.62 57.604 147.53 57.511 147.42 57.511C147.31 57.511 147.22 57.604 147.22 57.721C147.22 57.836 147.31 57.931 147.42 57.931Z" fill="#282B2D"/>
<path fill-rule="evenodd" clip-rule="evenodd" d="M150.923 59.615C151.033 59.615 151.123 59.52 151.123 59.404C151.123 59.288 151.033 59.194 150.923 59.194C150.813 59.194 150.723 59.288 150.723 59.404C150.723 59.52 150.813 59.615 150.923 59.615Z" fill="#282B2D"/>
<path fill-rule="evenodd" clip-rule="evenodd" d="M148.588 59.615C148.698 59.615 148.788 59.52 148.788 59.404C148.789 59.3771 148.784 59.3503 148.774 59.3252C148.765 59.3 148.75 59.2771 148.732 59.2576C148.713 59.2381 148.691 59.2224 148.666 59.2115C148.641 59.2006 148.615 59.1946 148.588 59.194C148.478 59.194 148.388 59.288 148.388 59.404C148.388 59.52 148.478 59.615 148.588 59.615Z" fill="#282B2D"/>
<path fill-rule="evenodd" clip-rule="evenodd" d="M146.254 59.615C146.364 59.615 146.453 59.52 146.453 59.404C146.454 59.3771 146.449 59.3503 146.439 59.3252C146.43 59.3 146.415 59.2771 146.396 59.2576C146.378 59.2381 146.356 59.2224 146.331 59.2115C146.306 59.2006 146.28 59.1946 146.253 59.194C146.143 59.194 146.053 59.288 146.053 59.404C146.053 59.52 146.143 59.614 146.253 59.614" fill="#282B2D"/>
<path fill-rule="evenodd" clip-rule="evenodd" d="M149.756 61.579C149.866 61.579 149.956 61.484 149.956 61.368C149.956 61.252 149.866 61.158 149.756 61.158C149.646 61.158 149.556 61.252 149.556 61.368C149.556 61.484 149.646 61.579 149.756 61.579Z" fill="#282B2D"/>
<path fill-rule="evenodd" clip-rule="evenodd" d="M147.42 61.579C147.53 61.579 147.62 61.484 147.62 61.368C147.62 61.252 147.53 61.158 147.42 61.158C147.31 61.158 147.22 61.252 147.22 61.368C147.22 61.484 147.31 61.579 147.42 61.579Z" fill="#282B2D"/>
<path fill-rule="evenodd" clip-rule="evenodd" d="M138.082 64.805C137.971 64.805 137.882 64.899 137.882 65.015C137.882 65.131 137.971 65.226 138.082 65.226C138.192 65.226 138.282 65.131 138.282 65.016C138.282 64.899 138.192 64.805 138.082 64.805Z" fill="#282B2D"/>
<path fill-rule="evenodd" clip-rule="evenodd" d="M138.082 61.158C137.971 61.158 137.882 61.252 137.882 61.368C137.882 61.484 137.971 61.578 138.082 61.578C138.192 61.578 138.282 61.484 138.282 61.368C138.282 61.252 138.192 61.158 138.082 61.158Z" fill="#282B2D"/>
<path fill-rule="evenodd" clip-rule="evenodd" d="M139.249 63.262C139.359 63.262 139.449 63.167 139.449 63.052C139.449 62.935 139.359 62.842 139.249 62.842C139.139 62.842 139.049 62.935 139.049 63.052C139.049 63.167 139.139 63.262 139.249 63.262Z" fill="#282B2D"/>
<path fill-rule="evenodd" clip-rule="evenodd" d="M136.914 62.841C136.804 62.841 136.714 62.935 136.714 63.051C136.714 63.167 136.804 63.262 136.914 63.262C137.024 63.262 137.114 63.167 137.114 63.052C137.114 62.935 137.024 62.841 136.914 62.841Z" fill="#282B2D"/>
<path fill-rule="evenodd" clip-rule="evenodd" d="M147.42 50.636C147.53 50.636 147.62 50.541 147.62 50.426C147.62 50.309 147.53 50.216 147.42 50.216C147.31 50.216 147.22 50.309 147.22 50.426C147.22 50.541 147.31 50.636 147.42 50.636Z" fill="#282B2D"/>
<path fill-rule="evenodd" clip-rule="evenodd" d="M145.086 50.215C144.976 50.215 144.886 50.309 144.886 50.425C144.886 50.541 144.976 50.636 145.086 50.636C145.196 50.636 145.286 50.541 145.286 50.426C145.286 50.309 145.196 50.216 145.086 50.216" fill="#282B2D"/>
<path fill-rule="evenodd" clip-rule="evenodd" d="M148.588 52.32C148.698 52.32 148.788 52.225 148.788 52.109C148.789 52.0821 148.784 52.0553 148.774 52.0302C148.765 52.005 148.75 51.9821 148.732 51.9626C148.713 51.9431 148.691 51.9274 148.666 51.9165C148.641 51.9056 148.615 51.8997 148.588 51.899C148.478 51.899 148.388 51.993 148.388 52.109C148.388 52.225 148.478 52.32 148.588 52.32Z" fill="#282B2D"/>
<path fill-rule="evenodd" clip-rule="evenodd" d="M146.254 51.899C146.143 51.899 146.054 51.993 146.054 52.109C146.054 52.225 146.143 52.319 146.254 52.319C146.364 52.319 146.453 52.225 146.453 52.109C146.454 52.0821 146.449 52.0553 146.439 52.0302C146.43 52.005 146.415 51.9821 146.397 51.9626C146.378 51.9431 146.356 51.9274 146.331 51.9165C146.306 51.9056 146.281 51.8997 146.254 51.899Z" fill="#282B2D"/>
<path fill-rule="evenodd" clip-rule="evenodd" d="M152.09 72.1C151.98 72.1 151.89 72.194 151.89 72.31C151.89 72.426 151.98 72.521 152.09 72.521C152.2 72.521 152.29 72.426 152.29 72.311C152.29 72.194 152.2 72.1 152.09 72.1Z" fill="#282B2D"/>
<path fill-rule="evenodd" clip-rule="evenodd" d="M143.919 62.841C143.808 62.841 143.719 62.935 143.719 63.051C143.719 63.167 143.808 63.262 143.919 63.262C144.029 63.262 144.119 63.167 144.119 63.052C144.119 62.935 144.029 62.841 143.919 62.841Z" fill="#282B2D"/>
<path fill-rule="evenodd" clip-rule="evenodd" d="M149.756 64.805C149.646 64.805 149.556 64.899 149.556 65.015C149.556 65.131 149.646 65.226 149.756 65.226C149.866 65.226 149.956 65.131 149.956 65.016C149.956 64.899 149.866 64.805 149.756 64.805Z" fill="#282B2D"/>
<path fill-rule="evenodd" clip-rule="evenodd" d="M147.42 64.805C147.31 64.805 147.22 64.899 147.22 65.015C147.22 65.131 147.31 65.226 147.42 65.226C147.53 65.226 147.62 65.131 147.62 65.016C147.62 64.899 147.53 64.805 147.42 64.805Z" fill="#282B2D"/>
<path fill-rule="evenodd" clip-rule="evenodd" d="M145.086 64.805C144.976 64.805 144.886 64.899 144.886 65.015C144.886 65.131 144.976 65.226 145.086 65.226C145.196 65.226 145.286 65.131 145.286 65.016C145.286 64.899 145.196 64.805 145.086 64.805Z" fill="#282B2D"/>
<path fill-rule="evenodd" clip-rule="evenodd" d="M142.75 64.805C142.64 64.805 142.55 64.899 142.55 65.015C142.55 65.131 142.64 65.226 142.75 65.226C142.86 65.226 142.95 65.131 142.95 65.016C142.95 64.899 142.86 64.805 142.75 64.805Z" fill="#282B2D"/>
<path fill-rule="evenodd" clip-rule="evenodd" d="M150.923 66.489C150.813 66.489 150.723 66.583 150.723 66.699C150.723 66.815 150.813 66.909 150.923 66.909C151.033 66.909 151.123 66.815 151.123 66.699C151.123 66.583 151.033 66.489 150.923 66.489Z" fill="#282B2D"/>
<path fill-rule="evenodd" clip-rule="evenodd" d="M148.588 66.489C148.478 66.489 148.388 66.583 148.388 66.699C148.388 66.815 148.478 66.909 148.588 66.909C148.698 66.909 148.788 66.815 148.788 66.699C148.789 66.6721 148.784 66.6453 148.774 66.6202C148.765 66.595 148.75 66.5721 148.732 66.5526C148.713 66.5331 148.691 66.5174 148.666 66.5065C148.641 66.4956 148.615 66.4896 148.588 66.489Z" fill="#282B2D"/>
<path fill-rule="evenodd" clip-rule="evenodd" d="M146.254 66.489C146.143 66.489 146.054 66.583 146.054 66.699C146.054 66.815 146.143 66.909 146.254 66.909C146.364 66.909 146.453 66.815 146.453 66.699C146.454 66.6721 146.449 66.6453 146.439 66.6202C146.43 66.595 146.415 66.5721 146.397 66.5526C146.378 66.5331 146.356 66.5174 146.331 66.5065C146.306 66.4956 146.281 66.4896 146.254 66.489Z" fill="#282B2D"/>
<path fill-rule="evenodd" clip-rule="evenodd" d="M143.919 66.489C143.808 66.489 143.719 66.583 143.719 66.699C143.719 66.815 143.808 66.909 143.919 66.909C144.029 66.909 144.119 66.815 144.119 66.699C144.119 66.583 144.029 66.489 143.919 66.489Z" fill="#282B2D"/>
<path fill-rule="evenodd" clip-rule="evenodd" d="M141.584 66.489C141.474 66.489 141.384 66.583 141.384 66.699C141.384 66.815 141.474 66.909 141.584 66.909C141.694 66.909 141.784 66.815 141.784 66.699C141.784 66.583 141.694 66.489 141.584 66.489Z" fill="#282B2D"/>
<path fill-rule="evenodd" clip-rule="evenodd" d="M149.756 68.453C149.646 68.453 149.556 68.547 149.556 68.663C149.556 68.779 149.646 68.873 149.756 68.873C149.866 68.873 149.956 68.779 149.956 68.663C149.956 68.547 149.866 68.453 149.756 68.453Z" fill="#282B2D"/>
<path fill-rule="evenodd" clip-rule="evenodd" d="M147.42 68.453C147.31 68.453 147.22 68.547 147.22 68.663C147.22 68.779 147.31 68.873 147.42 68.873C147.53 68.873 147.62 68.779 147.62 68.663C147.62 68.547 147.53 68.453 147.42 68.453Z" fill="#282B2D"/>
<path fill-rule="evenodd" clip-rule="evenodd" d="M145.086 68.453C144.976 68.453 144.886 68.547 144.886 68.663C144.886 68.779 144.976 68.873 145.086 68.873C145.196 68.873 145.286 68.779 145.286 68.663C145.286 68.547 145.196 68.453 145.086 68.453Z" fill="#282B2D"/>
<path fill-rule="evenodd" clip-rule="evenodd" d="M142.75 68.453C142.64 68.453 142.55 68.547 142.55 68.663C142.55 68.779 142.64 68.873 142.75 68.873C142.86 68.873 142.95 68.779 142.95 68.663C142.95 68.547 142.86 68.453 142.75 68.453Z" fill="#282B2D"/>
<path fill-rule="evenodd" clip-rule="evenodd" d="M140.416 68.453C140.306 68.453 140.216 68.547 140.216 68.663C140.216 68.779 140.306 68.873 140.416 68.873C140.526 68.873 140.616 68.779 140.616 68.663C140.617 68.6361 140.612 68.6093 140.602 68.5842C140.593 68.559 140.578 68.5361 140.56 68.5166C140.541 68.4971 140.519 68.4814 140.494 68.4705C140.469 68.4596 140.443 68.4537 140.416 68.453Z" fill="#282B2D"/>
<path fill-rule="evenodd" clip-rule="evenodd" d="M150.923 70.136C150.813 70.136 150.723 70.23 150.723 70.346C150.723 70.462 150.813 70.557 150.923 70.557C150.963 70.5563 151.001 70.5439 151.034 70.5213C151.067 70.4987 151.092 70.4669 151.107 70.43V70.426C151.117 70.4005 151.122 70.3734 151.123 70.346C151.123 70.23 151.033 70.136 150.923 70.136Z" fill="#282B2D"/>
<path fill-rule="evenodd" clip-rule="evenodd" d="M148.588 70.136C148.478 70.136 148.388 70.23 148.388 70.346C148.388 70.462 148.478 70.557 148.588 70.557C148.698 70.557 148.788 70.462 148.788 70.347C148.789 70.3201 148.784 70.2933 148.774 70.2682C148.765 70.243 148.75 70.2201 148.732 70.2006C148.713 70.1811 148.691 70.1654 148.666 70.1545C148.641 70.1436 148.615 70.1367 148.588 70.136Z" fill="#282B2D"/>
<path fill-rule="evenodd" clip-rule="evenodd" d="M146.254 70.136C146.143 70.136 146.054 70.23 146.054 70.346C146.054 70.462 146.143 70.557 146.254 70.557C146.364 70.557 146.453 70.462 146.453 70.347C146.454 70.3201 146.449 70.2933 146.439 70.2682C146.43 70.243 146.415 70.2201 146.397 70.2006C146.378 70.1811 146.356 70.1654 146.331 70.1545C146.306 70.1436 146.28 70.1376 146.253 70.137" fill="#282B2D"/>
<path fill-rule="evenodd" clip-rule="evenodd" d="M143.919 70.136C143.808 70.136 143.719 70.23 143.719 70.346C143.719 70.462 143.808 70.557 143.919 70.557C144.029 70.557 144.119 70.462 144.119 70.347C144.119 70.23 144.029 70.136 143.919 70.136Z" fill="#282B2D"/>
<path fill-rule="evenodd" clip-rule="evenodd" d="M141.584 70.136C141.474 70.136 141.384 70.23 141.384 70.346C141.384 70.462 141.474 70.557 141.584 70.557C141.694 70.557 141.784 70.462 141.784 70.347C141.784 70.23 141.694 70.136 141.584 70.136Z" fill="#282B2D"/>
<path fill-rule="evenodd" clip-rule="evenodd" d="M139.249 70.136C139.139 70.136 139.049 70.23 139.049 70.346C139.049 70.462 139.139 70.557 139.249 70.557C139.359 70.557 139.449 70.462 139.449 70.347C139.449 70.23 139.359 70.136 139.249 70.136Z" fill="#282B2D"/>
<path fill-rule="evenodd" clip-rule="evenodd" d="M149.756 72.1C149.646 72.1 149.556 72.194 149.556 72.31C149.556 72.426 149.646 72.521 149.756 72.521C149.866 72.521 149.956 72.426 149.956 72.311C149.956 72.194 149.866 72.1 149.756 72.1Z" fill="#282B2D"/>
<path fill-rule="evenodd" clip-rule="evenodd" d="M147.42 72.1C147.31 72.1 147.22 72.194 147.22 72.31C147.22 72.426 147.31 72.521 147.42 72.521C147.53 72.521 147.62 72.426 147.62 72.311C147.62 72.194 147.53 72.1 147.42 72.1Z" fill="#282B2D"/>
<path fill-rule="evenodd" clip-rule="evenodd" d="M145.086 72.1C144.976 72.1 144.886 72.194 144.886 72.31C144.886 72.426 144.976 72.521 145.086 72.521C145.196 72.521 145.286 72.426 145.286 72.311C145.286 72.194 145.196 72.1 145.086 72.1Z" fill="#282B2D"/>
<path fill-rule="evenodd" clip-rule="evenodd" d="M142.75 72.1C142.64 72.1 142.55 72.194 142.55 72.31C142.55 72.426 142.64 72.521 142.75 72.521C142.86 72.521 142.95 72.426 142.95 72.311C142.95 72.194 142.86 72.1 142.75 72.1Z" fill="#282B2D"/>
<path fill-rule="evenodd" clip-rule="evenodd" d="M140.416 72.1C140.306 72.1 140.216 72.194 140.216 72.31C140.216 72.426 140.306 72.521 140.416 72.521C140.526 72.521 140.616 72.426 140.616 72.311C140.617 72.2841 140.612 72.2573 140.602 72.2322C140.593 72.207 140.578 72.1841 140.56 72.1646C140.541 72.1451 140.519 72.1294 140.494 72.1185C140.469 72.1076 140.443 72.1007 140.416 72.1Z" fill="#282B2D"/>
<path fill-rule="evenodd" clip-rule="evenodd" d="M150.923 73.784C150.813 73.784 150.723 73.878 150.723 73.994C150.723 74.11 150.813 74.204 150.923 74.204C151.033 74.204 151.123 74.11 151.123 73.994C151.123 73.878 151.033 73.784 150.923 73.784Z" fill="#282B2D"/>
<path fill-rule="evenodd" clip-rule="evenodd" d="M148.588 73.784C148.478 73.784 148.388 73.878 148.388 73.994C148.388 74.11 148.478 74.204 148.588 74.204C148.698 74.204 148.788 74.11 148.788 73.994C148.789 73.9671 148.784 73.9403 148.774 73.9152C148.765 73.89 148.75 73.8671 148.732 73.8476C148.713 73.8281 148.691 73.8124 148.666 73.8015C148.641 73.7906 148.615 73.7846 148.588 73.784Z" fill="#282B2D"/>
<path fill-rule="evenodd" clip-rule="evenodd" d="M146.254 73.784C146.143 73.784 146.054 73.878 146.054 73.994C146.054 74.11 146.143 74.204 146.254 74.204C146.364 74.204 146.453 74.11 146.453 73.994C146.454 73.9671 146.449 73.9403 146.439 73.9152C146.43 73.89 146.415 73.8671 146.397 73.8476C146.378 73.8281 146.356 73.8124 146.331 73.8015C146.306 73.7906 146.281 73.7846 146.254 73.784Z" fill="#282B2D"/>
<path fill-rule="evenodd" clip-rule="evenodd" d="M143.919 73.784C143.808 73.784 143.719 73.878 143.719 73.994C143.719 74.11 143.808 74.204 143.919 74.204C144.029 74.204 144.119 74.11 144.119 73.994C144.119 73.878 144.029 73.784 143.919 73.784Z" fill="#282B2D"/>
<path fill-rule="evenodd" clip-rule="evenodd" d="M141.584 73.784C141.474 73.784 141.384 73.878 141.384 73.994C141.384 74.11 141.474 74.204 141.584 74.204C141.694 74.204 141.784 74.11 141.784 73.994C141.784 73.878 141.694 73.784 141.584 73.784Z" fill="#282B2D"/>
<path fill-rule="evenodd" clip-rule="evenodd" d="M139.249 73.784C139.139 73.784 139.049 73.878 139.049 73.994C139.049 74.11 139.139 74.204 139.249 74.204C139.359 74.204 139.449 74.11 139.449 73.994C139.449 73.878 139.359 73.784 139.249 73.784Z" fill="#282B2D"/>
<path fill-rule="evenodd" clip-rule="evenodd" d="M149.756 75.748C149.646 75.748 149.556 75.841 149.556 75.958C149.556 76.073 149.646 76.168 149.756 76.168C149.866 76.168 149.956 76.073 149.956 75.958C149.956 75.841 149.866 75.748 149.756 75.748Z" fill="#282B2D"/>
<path fill-rule="evenodd" clip-rule="evenodd" d="M147.42 75.748C147.31 75.748 147.22 75.841 147.22 75.958C147.22 76.073 147.31 76.168 147.42 76.168C147.53 76.168 147.62 76.073 147.62 75.958C147.62 75.841 147.53 75.748 147.42 75.748Z" fill="#282B2D"/>
<path fill-rule="evenodd" clip-rule="evenodd" d="M145.086 75.748C144.976 75.748 144.886 75.841 144.886 75.958C144.886 76.073 144.976 76.168 145.086 76.168C145.196 76.168 145.286 76.073 145.286 75.958C145.286 75.841 145.196 75.748 145.086 75.748Z" fill="#282B2D"/>
<path fill-rule="evenodd" clip-rule="evenodd" d="M142.75 75.748C142.64 75.748 142.55 75.841 142.55 75.958C142.55 76.073 142.64 76.168 142.75 76.168C142.86 76.168 142.95 76.073 142.95 75.958C142.95 75.841 142.86 75.748 142.75 75.748Z" fill="#282B2D"/>
<path fill-rule="evenodd" clip-rule="evenodd" d="M140.416 75.748C140.306 75.748 140.216 75.841 140.216 75.958C140.216 76.073 140.306 76.168 140.416 76.168C140.526 76.168 140.616 76.073 140.616 75.958C140.617 75.9311 140.612 75.9043 140.602 75.8792C140.593 75.854 140.578 75.8311 140.56 75.8116C140.541 75.7921 140.519 75.7764 140.494 75.7655C140.469 75.7546 140.443 75.7486 140.416 75.748Z" fill="#282B2D"/>
<path fill-rule="evenodd" clip-rule="evenodd" d="M148.588 77.431C148.478 77.431 148.388 77.525 148.388 77.641C148.388 77.757 148.478 77.852 148.588 77.852C148.698 77.852 148.788 77.757 148.788 77.642C148.789 77.6151 148.784 77.5883 148.774 77.5632C148.765 77.538 148.75 77.5151 148.732 77.4956C148.713 77.4761 148.691 77.4604 148.666 77.4495C148.641 77.4386 148.615 77.4327 148.588 77.432" fill="#282B2D"/>
<path fill-rule="evenodd" clip-rule="evenodd" d="M146.254 77.431C146.143 77.431 146.054 77.525 146.054 77.641C146.054 77.757 146.143 77.852 146.254 77.852C146.364 77.852 146.453 77.757 146.453 77.642C146.454 77.6151 146.449 77.5883 146.439 77.5632C146.43 77.538 146.415 77.5151 146.397 77.4956C146.378 77.4761 146.356 77.4604 146.331 77.4495C146.306 77.4386 146.28 77.4327 146.253 77.432" fill="#282B2D"/>
<path fill-rule="evenodd" clip-rule="evenodd" d="M143.919 77.431C143.808 77.431 143.719 77.525 143.719 77.641C143.719 77.757 143.808 77.852 143.919 77.852C144.029 77.852 144.119 77.757 144.119 77.642C144.119 77.525 144.029 77.432 143.919 77.432" fill="#282B2D"/>
<path fill-rule="evenodd" clip-rule="evenodd" d="M141.584 77.431C141.474 77.431 141.384 77.525 141.384 77.641C141.384 77.757 141.474 77.852 141.584 77.852C141.694 77.852 141.784 77.757 141.784 77.642C141.784 77.525 141.694 77.432 141.584 77.432" fill="#282B2D"/>
<path fill-rule="evenodd" clip-rule="evenodd" d="M147.42 79.395C147.31 79.395 147.22 79.489 147.22 79.605C147.22 79.721 147.31 79.816 147.42 79.816C147.53 79.816 147.62 79.721 147.62 79.605C147.62 79.489 147.53 79.395 147.42 79.395Z" fill="#282B2D"/>
<path fill-rule="evenodd" clip-rule="evenodd" d="M145.086 79.395C144.976 79.395 144.886 79.489 144.886 79.605C144.886 79.721 144.976 79.816 145.086 79.816C145.196 79.816 145.286 79.721 145.286 79.605C145.286 79.489 145.196 79.395 145.086 79.395Z" fill="#282B2D"/>
<path fill-rule="evenodd" clip-rule="evenodd" d="M142.75 79.395C142.64 79.395 142.55 79.489 142.55 79.605C142.55 79.721 142.64 79.816 142.75 79.816C142.86 79.816 142.95 79.721 142.95 79.605C142.95 79.489 142.86 79.395 142.75 79.395Z" fill="#282B2D"/>
<path fill-rule="evenodd" clip-rule="evenodd" d="M146.254 62.841C146.143 62.841 146.054 62.935 146.054 63.051C146.054 63.094 146.068 63.132 146.09 63.165C146.114 63.2055 146.152 63.2357 146.197 63.25C146.216 63.255 146.233 63.262 146.254 63.262C146.364 63.262 146.453 63.167 146.453 63.052C146.454 63.0251 146.449 62.9983 146.439 62.9732C146.43 62.948 146.415 62.9251 146.397 62.9056C146.378 62.8861 146.356 62.8704 146.331 62.8595C146.306 62.8486 146.28 62.8427 146.253 62.842" fill="#282B2D"/>
<path fill-rule="evenodd" clip-rule="evenodd" d="M156.76 68.453C156.65 68.453 156.56 68.547 156.56 68.663C156.56 68.779 156.65 68.873 156.76 68.873C156.87 68.873 156.96 68.779 156.96 68.663C156.96 68.547 156.87 68.453 156.76 68.453Z" fill="#282B2D"/>
<path fill-rule="evenodd" clip-rule="evenodd" d="M154.425 68.453C154.315 68.453 154.225 68.547 154.225 68.663C154.225 68.779 154.315 68.873 154.425 68.873C154.535 68.873 154.625 68.779 154.625 68.663C154.626 68.6361 154.621 68.6093 154.611 68.5842C154.602 68.559 154.587 68.5361 154.568 68.5166C154.55 68.4971 154.528 68.4814 154.503 68.4705C154.478 68.4596 154.452 68.4537 154.425 68.453Z" fill="#282B2D"/>
<path fill-rule="evenodd" clip-rule="evenodd" d="M155.593 70.136C155.483 70.136 155.393 70.23 155.393 70.346C155.393 70.462 155.483 70.557 155.593 70.557C155.703 70.557 155.793 70.462 155.793 70.347C155.793 70.23 155.703 70.136 155.593 70.136Z" fill="#282B2D"/>
<path fill-rule="evenodd" clip-rule="evenodd" d="M153.258 70.136C153.148 70.136 153.058 70.23 153.058 70.346C153.058 70.462 153.148 70.557 153.258 70.557C153.368 70.557 153.458 70.462 153.458 70.347C153.458 70.23 153.368 70.136 153.258 70.136Z" fill="#282B2D"/>
<path fill-rule="evenodd" clip-rule="evenodd" d="M154.425 72.1C154.315 72.1 154.225 72.194 154.225 72.31C154.225 72.426 154.315 72.521 154.425 72.521C154.535 72.521 154.625 72.426 154.625 72.311C154.626 72.2841 154.621 72.2573 154.611 72.2322C154.602 72.207 154.587 72.1841 154.568 72.1646C154.55 72.1451 154.528 72.1294 154.503 72.1185C154.478 72.1076 154.452 72.1007 154.425 72.1Z" fill="#282B2D"/>
<path fill-rule="evenodd" clip-rule="evenodd" d="M156.76 72.1C156.65 72.1 156.56 72.194 156.56 72.31C156.56 72.376 156.59 72.432 156.635 72.471C156.51 72.6042 156.377 72.7301 156.238 72.848C155.518 73.449 154.668 73.799 153.846 73.836C153.685 73.8436 153.523 73.8379 153.363 73.819C153.332 73.7971 153.296 73.7849 153.258 73.784C153.241 73.784 153.227 73.789 153.211 73.794C153.115 73.7771 153.021 73.7547 152.928 73.727C153.191 72.176 153.169 70.5902 152.864 69.047C152.903 69.012 152.939 68.977 152.978 68.944C153.697 68.344 154.546 67.994 155.368 67.955L155.512 67.953C156.239 67.953 156.854 68.21 157.252 68.688C157.677 69.196 157.814 69.901 157.637 70.671C157.505 71.2161 157.255 71.7253 156.903 72.162C156.885 72.1426 156.862 72.1271 156.838 72.1164C156.813 72.1058 156.787 72.1002 156.76 72.1ZM152.314 73.43C152.234 73.9429 152.121 74.45 151.975 74.948C151.95 75.03 151.923 75.11 151.897 75.192C151.837 75.379 151.774 75.565 151.705 75.746C151.673 75.833 151.639 75.918 151.605 76.004C151.531 76.184 151.453 76.361 151.371 76.534C151.338 76.605 151.306 76.677 151.271 76.746C151.155 76.9814 151.029 77.212 150.894 77.437C150.846 77.4451 150.802 77.4701 150.771 77.5075C150.74 77.5449 150.723 77.5922 150.723 77.641C150.723 77.657 150.729 77.671 150.732 77.685C149.437 79.678 147.527 80.947 145.394 80.947C141.499 80.947 138.332 76.738 138.332 71.564C138.332 71.056 138.364 70.559 138.422 70.074C138.515 69.304 138.678 68.564 138.904 67.868C138.947 67.735 138.998 67.609 139.046 67.48C139.09 67.464 139.136 67.454 139.181 67.436V67.113L139.197 67.068C139.22 67.012 139.247 66.959 139.271 66.905C139.306 66.9004 139.338 66.8871 139.367 66.8662C139.395 66.8454 139.417 66.8177 139.431 66.7858C139.445 66.754 139.451 66.719 139.448 66.6842C139.445 66.6494 139.434 66.6159 139.414 66.587C139.66 66.068 139.944 65.583 140.259 65.139C140.276 65.1651 140.299 65.1866 140.327 65.2018C140.354 65.2169 140.385 65.2252 140.416 65.226C140.439 65.226 140.459 65.219 140.48 65.212C140.508 65.2356 140.543 65.2513 140.579 65.2575C140.615 65.2637 140.653 65.2602 140.687 65.2473C140.722 65.2344 140.753 65.2127 140.776 65.1842C140.8 65.1558 140.815 65.1216 140.821 65.0852C140.827 65.0488 140.824 65.0114 140.811 64.9768C140.798 64.9422 140.776 64.9117 140.747 64.8882C140.719 64.8648 140.685 64.8493 140.648 64.8433C140.612 64.8373 140.575 64.841 140.54 64.854C140.545 64.815 140.552 64.777 140.556 64.737C140.762 64.4784 140.983 64.2326 141.219 64.001C142.167 63.075 143.295 62.456 144.519 62.254C144.75 62.2167 144.984 62.1939 145.218 62.186C145.277 62.184 145.334 62.18 145.394 62.18C146.466 62.18 147.482 62.504 148.393 63.077C148.406 63.18 148.487 63.262 148.588 63.262C148.611 63.2612 148.634 63.2561 148.656 63.247C149.018 63.5004 149.357 63.7862 149.667 64.101C150.754 65.203 151.589 66.715 152.051 68.461C152.005 68.4711 151.964 68.4966 151.935 68.5331C151.906 68.5697 151.891 68.6152 151.891 68.662C151.891 68.779 151.98 68.873 152.091 68.873C152.097 68.873 152.101 68.871 152.108 68.87C152.124 68.8686 152.139 68.8652 152.154 68.86C152.353 69.7476 152.454 70.6544 152.454 71.564C152.454 72.204 152.406 72.827 152.314 73.43ZM137.052 66.851C137.092 66.8105 137.114 66.7559 137.114 66.699C137.115 66.672 137.11 66.6452 137.101 66.62C137.091 66.5948 137.076 66.5718 137.058 66.5523C137.039 66.5327 137.017 66.5171 136.992 66.5062C136.968 66.4954 136.941 66.4895 136.914 66.489C136.877 66.4898 136.841 66.501 136.81 66.5213C136.779 66.5417 136.754 66.5703 136.739 66.604C136.314 66.2222 135.979 65.7509 135.758 65.224C135.81 65.2202 135.859 65.1963 135.895 65.1574C135.93 65.1185 135.949 65.0676 135.948 65.015C135.948 64.899 135.858 64.805 135.747 64.805C135.699 64.8061 135.652 64.825 135.617 64.858C135.573 64.7282 135.535 64.5964 135.504 64.463C135.467 64.3036 135.438 64.1434 135.418 63.981C135.3 63.066 135.47 62.203 135.852 61.561L135.848 61.566C135.853 61.559 135.857 61.55 135.861 61.542L135.851 61.56L135.869 61.531C135.901 61.5042 135.924 61.4688 135.936 61.429C135.952 61.405 135.968 61.38 135.986 61.356C136.288 60.938 136.694 60.638 137.179 60.523C138.542 60.197 140.011 61.436 140.451 63.284C140.489 63.446 140.516 63.608 140.537 63.769C140.012 64.3302 139.557 64.9527 139.181 65.623C138.882 66.1504 138.627 66.7016 138.419 67.271C137.959 67.291 137.489 67.148 137.052 66.851ZM144.892 57.754C144.898 57.8019 144.92 57.8463 144.956 57.8788C144.992 57.9113 145.038 57.9299 145.086 57.931C145.196 57.931 145.286 57.836 145.286 57.721C145.287 57.6941 145.282 57.6673 145.272 57.6422C145.263 57.617 145.248 57.5941 145.229 57.5746C145.211 57.5551 145.189 57.5394 145.164 57.5285C145.139 57.5176 145.113 57.5117 145.086 57.511C145.06 57.5111 145.034 57.5165 145.01 57.5268C144.986 57.5371 144.964 57.5521 144.946 57.571C145.016 57.362 145.096 57.153 145.188 56.946C145.53 56.1629 146.014 55.4502 146.616 54.844L146.621 54.84C146.79 54.6711 146.97 54.5131 147.159 54.367L147.168 54.36L147.171 54.358L147.181 54.35C147.205 54.331 147.229 54.315 147.253 54.297L147.319 54.249C147.349 54.269 147.383 54.284 147.421 54.284C147.531 54.284 147.621 54.189 147.621 54.074C147.621 54.065 147.617 54.057 147.616 54.048L147.633 54.038C147.635 54.038 147.636 54.038 147.638 54.036H147.637C148.203 53.686 148.803 53.462 149.397 53.391C149.636 53.3611 149.877 53.3571 150.116 53.379C150.445 53.41 150.766 53.491 151.074 53.627C151.397 53.77 151.686 53.969 151.943 54.211C151.951 54.221 151.961 54.228 151.971 54.238C152.474 54.723 152.843 55.388 153.034 56.192C153.301 57.312 153.2 58.568 152.757 59.775C152.733 59.7642 152.707 59.7584 152.681 59.758C152.571 59.758 152.481 59.853 152.481 59.969C152.481 60.056 152.531 60.13 152.603 60.162L152.581 60.215C152.441 60.535 152.278 60.837 152.099 61.125C152.074 61.1152 152.048 61.1098 152.022 61.109C151.911 61.109 151.822 61.203 151.822 61.319C151.822 61.372 151.842 61.42 151.874 61.457C151.334 62.22 150.664 62.841 149.91 63.257C149.869 63.28 149.828 63.297 149.787 63.318C148.539 62.189 147.026 61.524 145.394 61.524C145.33 61.524 145.268 61.531 145.204 61.534C145.229 61.5144 145.25 61.4893 145.264 61.4605C145.278 61.4317 145.286 61.4001 145.286 61.368C145.287 61.341 145.282 61.3142 145.273 61.289C145.263 61.2638 145.248 61.2408 145.23 61.2213C145.211 61.2017 145.189 61.1861 145.164 61.1752C145.14 61.1644 145.113 61.1585 145.086 61.158C144.976 61.158 144.886 61.251 144.886 61.368C144.886 61.443 144.925 61.505 144.981 61.542L144.915 61.545C144.504 60.462 144.479 59.109 144.893 57.755L144.892 57.754ZM145.046 52.208C144.403 50.568 144.863 48.848 146.071 48.373H146.073C146.061 48.4008 146.054 48.4307 146.053 48.461C146.053 48.578 146.143 48.672 146.253 48.672C146.363 48.672 146.453 48.578 146.453 48.462C146.453 48.4282 146.445 48.3949 146.429 48.365C146.413 48.335 146.391 48.3093 146.363 48.29C146.48 48.266 146.599 48.252 146.721 48.252C147.114 48.252 147.525 48.375 147.921 48.617C148.575 49.015 149.111 49.68 149.428 50.49C149.732 51.262 149.787 52.052 149.638 52.721C148.558 52.771 147.461 53.247 146.514 54.059C145.906 53.676 145.368 53.028 145.046 52.208ZM125.778 63.981H111.427L125.642 43.132H125.778V63.981ZM158.277 70.818C158.397 70.288 158.395 69.778 158.28 69.315C158.515 69.3042 158.737 69.2022 158.898 69.0305C159.059 68.8589 159.147 68.6313 159.142 68.3959C159.138 68.1606 159.042 67.9362 158.875 67.7704C158.708 67.6046 158.483 67.5105 158.248 67.508C158.087 67.5084 157.93 67.5519 157.791 67.6338C157.653 67.7158 157.539 67.8332 157.462 67.974C156.915 67.501 156.179 67.264 155.34 67.3C154.427 67.341 153.496 67.708 152.698 68.332C152.228 66.542 151.382 64.976 150.28 63.799C151.512 63.103 152.54 61.929 153.182 60.48C153.83 59.012 154.005 57.435 153.672 56.04C153.331 54.612 152.502 53.541 151.34 53.027C151.008 52.8827 150.657 52.7884 150.298 52.747C150.446 51.977 150.372 51.102 150.038 50.249C149.668 49.307 149.038 48.529 148.263 48.057C147.687 47.707 147.081 47.557 146.503 47.609C146.583 47.4721 146.625 47.3163 146.626 47.1577C146.626 46.999 146.584 46.8432 146.505 46.7059C146.425 46.5687 146.311 46.455 146.173 46.3765C146.035 46.298 145.879 46.2574 145.72 46.259C145.511 46.2601 145.308 46.3338 145.147 46.4675C144.986 46.6011 144.876 46.7866 144.836 46.9922C144.796 47.1978 144.829 47.4108 144.929 47.5949C145.029 47.7791 145.189 47.9229 145.383 48.002C144.173 48.807 143.741 50.676 144.436 52.448C144.785 53.339 145.363 54.054 146.031 54.518C145.428 55.1495 144.939 55.8811 144.587 56.68C143.829 58.395 143.756 60.197 144.252 61.635C143.102 61.858 142.032 62.412 141.107 63.22C141.1 63.191 141.096 63.162 141.089 63.132C140.565 60.933 138.742 59.476 137.027 59.884C136.937 59.906 136.853 59.934 136.769 59.964C136.764 59.7995 136.715 59.6395 136.626 59.5012C136.536 59.3628 136.411 59.2514 136.264 59.1789C136.116 59.1064 135.951 59.0756 135.787 59.0898C135.624 59.104 135.467 59.1626 135.334 59.2594C135.201 59.3562 135.096 59.4874 135.032 59.639C134.969 59.7906 134.947 59.9567 134.971 60.1196C134.994 60.2824 135.062 60.4357 135.166 60.563C135.27 60.6903 135.407 60.7868 135.562 60.842C134.934 61.622 134.624 62.764 134.759 63.982H133.088V33.925H125.778L105.47 62.424V70.074H125.778V81.31H125.768V81.56H134.203V81.31H133.088V70.073H137.77C137.713 70.56 137.676 71.056 137.676 71.564C137.676 77.099 141.138 81.604 145.394 81.604C148.899 81.604 151.864 78.545 152.8 74.374C153.15 74.4724 153.513 74.5123 153.876 74.492C154.841 74.448 155.829 74.043 156.656 73.352C157.486 72.66 158.062 71.76 158.277 70.818Z" fill="#282B2D"/>
</svg>
