<?xml version="1.0" encoding="UTF-8"?>
<svg data-bbox="20 44.241 160 111.518" xmlns="http://www.w3.org/2000/svg" width="200" height="200" viewBox="0 0 200 200" data-type="color">
    <g>
        <path fill="#384AD3" d="M20 85.806c5.044-7.019 24.785-34.655 29.939-41.015h8.993v39.261h9.431v8.005h-9.431v17.327h-8.444V92.057H20v-6.251zm30.487-1.755V73.633c0-8.444.22-15.901.439-19.192h-.109c-3.619 5.044-18.315 25.991-20.947 29.61h20.617z" data-color="1"/>
        <path fill="#384AD3" d="M100.055 44.241c17.218 0 23.798 16.121 23.798 32.901 0 18.095-7.676 33.339-23.688 33.339-15.244 0-24.127-13.489-24.127-33.339 0-19.959 9.432-32.901 24.017-32.901zm.329 58.015c9.76 0 14.147-10.966 14.147-25.114 0-15.683-5.484-24.785-14.805-24.785-8.444 0-14.695 8.773-14.695 24.565 0 14.697 5.373 25.334 15.353 25.334z" data-color="1"/>
        <path fill="#384AD3" d="M131.637 85.806c5.044-7.019 24.785-34.655 29.939-41.015h8.993v39.261H180v8.005h-9.431v17.327h-8.444V92.057h-30.487v-6.251zm30.487-1.755V73.633c0-8.444.22-15.901.439-19.192h-.109c-3.62 5.044-18.315 25.991-20.947 29.61h20.617z" data-color="1"/>
        <path d="M139.847 147.892c.086 3.77-18.772 7.26-42.122 7.797-23.35.537-42.35-2.082-42.436-5.851-.087-3.77 18.772-7.26 42.122-7.797 23.35-.537 42.349 2.082 42.436 5.851z" fill="#E8E6E6" data-color="2"/>
        <path fill="#384AD3" d="M89.795 132.526a.774.774 0 01-.772-.726c-.392-6.219-2.143-11.333-4.932-14.402a.774.774 0 111.147-1.042c3.024 3.328 4.918 8.779 5.332 15.347a.774.774 0 01-.724.822l-.051.001z" data-color="1"/>
        <path fill="#384AD3" d="M147.666 128.262a.775.775 0 01-.773-.839c.619-7.579.441-22.022-4.147-28.084a.774.774 0 111.235-.935c5.996 7.923 4.631 26.997 4.455 29.146a.773.773 0 01-.77.712z" data-color="1"/>
        <path fill="#384AD3" d="M126.748 147.949a.768.768 0 01-.346-.082l-3.639-1.82a1.872 1.872 0 01-1.032-1.787c.53-8.666 1.196-19.134 1.363-19.798a.776.776 0 01.94-.564.773.773 0 01.567.927c-.116.626-.635 8.284-1.323 19.529a.323.323 0 00.179.307l3.638 1.82a.775.775 0 01-.347 1.468z" data-color="1"/>
        <path fill="#384AD3" d="M116.065 147.949a.768.768 0 01-.346-.082l-3.639-1.82a1.871 1.871 0 01-1.032-1.788c.53-8.665 1.196-19.134 1.363-19.797a.777.777 0 01.94-.564.773.773 0 01.567.927c-.116.626-.635 8.284-1.323 19.529a.322.322 0 00.179.307l3.639 1.82a.775.775 0 01-.348 1.468z" data-color="1"/>
        <path fill="#E8E6E6" d="M152.006 85.827l-1.292-1.588a2.201 2.201 0 00-1.895-.802l-42.317 3.703a2.196 2.196 0 00-1.91 1.55l-10.657 35.118a2.196 2.196 0 00.623 2.262l1.544 1.406c.453.413 1.06.618 1.67.564l42.114-3.684a2.196 2.196 0 001.91-1.55l10.608-34.955a2.194 2.194 0 00-.398-2.024z" data-color="2"/>
        <path fill="#384AD3" d="M97.583 128.438a2.589 2.589 0 01-1.742-.674l-1.545-1.407c-.733-.668-1.02-1.712-.733-2.66l10.658-35.118a2.572 2.572 0 012.248-1.824l42.317-3.702a2.583 2.583 0 012.229.943l1.292 1.588a2.58 2.58 0 01.469 2.382l-10.608 34.956a2.57 2.57 0 01-2.248 1.824l-42.114 3.684a3.323 3.323 0 01-.223.008zm51.428-44.62a2.11 2.11 0 00-.158.007l-42.317 3.702a1.801 1.801 0 00-1.573 1.276l-10.658 35.118c-.202.664 0 1.396.513 1.863l1.545 1.407a1.82 1.82 0 001.376.465l42.114-3.684a1.8 1.8 0 001.573-1.276l10.608-34.956a1.81 1.81 0 00-.328-1.668l-1.292-1.588a1.809 1.809 0 00-1.403-.666z" data-color="1"/>
        <path fill="#FFFFFF" d="M97.126 127.962a.459.459 0 01-.438-.594l10.897-35.383a2.381 2.381 0 012.073-1.677l41.361-3.68c.036-.004.071-.004.107-.004.373 0 .716.173.94.475.223.3.289.679.18 1.038l-10.364 34.277c.002 0-.335 1.968-2.906 1.968l-41.822 3.582-.028-.002z" data-color="3"/>
        <path fill="#384AD3" d="M151.125 86.816a.98.98 0 01.935 1.263l-10.364 34.276s-.282 1.83-2.721 1.83l-41.83 3.581-.02.001a.265.265 0 01-.253-.343l10.897-35.383a2.197 2.197 0 011.905-1.541l41.361-3.679a.922.922 0 01.09-.005m0-.388c-.041 0-.082.002-.124.005l-41.361 3.679a2.573 2.573 0 00-2.241 1.813L96.502 127.31a.656.656 0 00.623.845l.05-.002 41.817-3.58c2.522-.008 3.017-1.833 3.079-2.121l10.359-34.261c.126-.419.05-.86-.211-1.21a1.35 1.35 0 00-1.094-.553z" data-color="1"/>
        <path d="M106.37 95.97l-3.194-3.105.271-.277 3.066 2.981 44.868-3.925.034.385-45.045 3.941z" fill="#384AD3" data-color="1"/>
        <path fill="#384AD3" d="M75.315 149.764a.774.774 0 01-.389-.105l-3.112-1.812a.775.775 0 01-.383-.716c.251-4.138.849-13.823.989-14.385a.775.775 0 011.509.355c-.106.633-.598 8.322-.923 13.647l2.7 1.572a.776.776 0 01-.391 1.444z" data-color="1"/>
        <path fill="#384AD3" d="M67.846 149.764a.774.774 0 01-.389-.105l-3.112-1.812a.775.775 0 01-.383-.716c.251-4.138.849-13.823.989-14.385a.775.775 0 011.509.355c-.106.633-.598 8.322-.923 13.647l2.7 1.572a.776.776 0 01-.391 1.444z" data-color="1"/>
        <path fill="#E8E6E6" d="M89.656 101.539l-.459-.564a2.197 2.197 0 00-1.896-.801l-19.874 1.751a2.197 2.197 0 00-1.909 1.549l-8.492 27.953c-.246.812-.004 1.25.623 1.821l.556.506c.454.413.866 1.005 2.822 1.005l18.643-1.744a2.197 2.197 0 001.909-1.549l8.476-27.902a2.196 2.196 0 00-.399-2.025z" data-color="2"/>
        <path fill="#384AD3" d="M61.054 135.146c-1.954 0-2.551-.572-2.987-.989a6.374 6.374 0 00-.124-.116l-.556-.506c-.68-.62-1.04-1.207-.732-2.22l8.492-27.953a2.572 2.572 0 012.245-1.823l19.874-1.751a2.575 2.575 0 012.231.943l.459.564c.544.668.719 1.558.468 2.382l-8.476 27.902a2.572 2.572 0 01-2.245 1.823l-18.64 1.744h-.009zm26.441-34.593c-.053 0-.106.003-.159.007l-19.874 1.751a1.8 1.8 0 00-1.572 1.276l-8.492 27.953c-.18.594-.075.886.513 1.422l.556.506.138.129c.38.364.81.776 2.424.776l18.606-1.742a1.802 1.802 0 001.574-1.276l8.476-27.901a1.81 1.81 0 00-.328-1.668l-.459-.564a1.805 1.805 0 00-1.403-.669z" data-color="1"/>
        <path fill="#384AD3" d="M50.857 130.507a.775.775 0 01-.728-1.041c1.895-5.189 6.354-12.062 12.679-14.355a.776.776 0 01.528 1.458c-5.824 2.11-9.971 8.553-11.751 13.429a.777.777 0 01-.728.509z" data-color="1"/>
        <path fill="#FFFFFF" d="M61.835 134.359a1.983 1.983 0 01-1.604-.812 1.987 1.987 0 01-.307-1.773l7.91-26.037a1.994 1.994 0 011.74-1.413l19.358-1.706a.894.894 0 01.807.362.896.896 0 01.139.801l-8.383 27.594a1.993 1.993 0 01-1.74 1.413l-17.739 1.563c-.06.006-.121.008-.181.008z" data-color="3"/>
        <path fill="#384AD3" d="M89.017 102.808c.225 0 .432.105.568.288a.7.7 0 01.108.629l-8.383 27.594a1.8 1.8 0 01-1.572 1.276l-17.739 1.563a1.793 1.793 0 01-1.613-.726 1.789 1.789 0 01-.276-1.602l7.91-26.037a1.8 1.8 0 011.572-1.276l19.359-1.706a.763.763 0 01.066-.003m0-.388c-.033 0-.066.002-.1.004l-19.359 1.706a2.197 2.197 0 00-1.909 1.549l-7.91 26.037a2.197 2.197 0 002.294 2.827l17.739-1.563a2.197 2.197 0 001.909-1.549l8.383-27.594a1.097 1.097 0 00-1.047-1.417z" data-color="1"/>
        <path d="M66.884 108.235l-2.252-2.189.27-.277 2.124 2.065 22.424-1.976.034.386-22.6 1.991z" fill="#384AD3" data-color="1"/>
        <path d="M60.19 130.592l-2.476-2.181.256-.291 2.35 2.072 22.205-1.976.034.386-22.369 1.99z" fill="#384AD3" data-color="1"/>
        <path fill="#384AD3" d="M89.797 132.526a.776.776 0 01-.761-.925c.417-2.116 4.299-20.84 12.227-26.829a.774.774 0 11.934 1.236c-6.066 4.583-10.171 18.432-11.64 25.893a.777.777 0 01-.76.625z" data-color="1"/>
        <path fill="#384AD3" d="M134.406 104.189c.948-.653 2.088-.672 2.71-.095.731-.731.961-1.726.494-2.404-.548-.796-1.851-.851-2.908-.123-1.057.729-1.469 1.964-.921 2.761.057.083.126.151.197.218a3.14 3.14 0 01.428-.357z" data-color="1"/>
        <path fill="#384AD3" d="M71.09 116.473c-.308-.446-1.038-.477-1.631-.068s-.824 1.102-.516 1.548c.032.046.07.085.111.123.072-.072.151-.14.239-.2.532-.366 1.172-.377 1.52-.053.41-.412.539-.97.277-1.35z" data-color="1"/>
        <path fill="#384AD3" d="M79.259 116.957c.532-.366 1.172-.377 1.52-.053.41-.41.54-.968.277-1.348-.308-.446-1.038-.477-1.631-.068s-.824 1.102-.516 1.548c.032.046.07.085.111.123.072-.073.151-.141.239-.202z" data-color="1"/>
        <path fill="#384AD3" d="M71.656 132.285a.723.723 0 01-.516-.202c-.316-.316-.25-.896.147-1.292.397-.397.977-.463 1.292-.148s.25.896-.148 1.292a1.172 1.172 0 01-.649.34.74.74 0 01-.126.01zm-.094-1.22c-.242.242-.309.583-.147.745.098.098.239.094.315.083a.789.789 0 00.43-.229c.242-.242.309-.583.148-.745-.163-.163-.504-.096-.746.146z" data-color="1"/>
        <path fill="#384AD3" d="M111.315 93.668a.707.707 0 01-.512-.2c-.316-.316-.25-.896.147-1.292.397-.397.978-.463 1.293-.148a.747.747 0 01.192.644 1.172 1.172 0 01-.34.649 1.129 1.129 0 01-.78.347zm-.091-1.218c-.242.242-.308.583-.147.745.162.162.503.094.745-.148a.789.789 0 00.229-.43c.011-.076.015-.217-.083-.315-.161-.162-.503-.094-.744.148z" data-color="1"/>
        <path fill="#384AD3" d="M113.93 93.5a.707.707 0 01-.512-.2c-.316-.316-.25-.896.147-1.292.185-.185.416-.306.649-.34a.744.744 0 01.644.192c.316.316.25.896-.148 1.292a1.126 1.126 0 01-.78.348zm-.091-1.218c-.242.242-.308.583-.147.745.162.162.503.094.745-.148s.309-.583.148-.745c-.097-.098-.239-.094-.315-.083a.802.802 0 00-.431.231z" data-color="1"/>
        <path fill="#384AD3" d="M116.545 93.332a.707.707 0 01-.512-.2.747.747 0 01-.192-.644c.034-.233.154-.464.339-.649.397-.396.978-.463 1.293-.148s.25.896-.148 1.292a1.118 1.118 0 01-.78.349zm-.092-1.217a.789.789 0 00-.229.43c-.011.076-.015.217.083.314.162.163.503.094.745-.147.242-.242.309-.583.148-.745-.164-.163-.505-.094-.747.148z" data-color="1"/>
        <path fill="#384AD3" d="M115.263 105.748c.948-.653 2.088-.672 2.71-.095.731-.731.961-1.726.494-2.404-.548-.796-1.851-.851-2.908-.123-1.057.729-1.469 1.964-.921 2.761.057.083.126.151.197.218.129-.128.27-.249.428-.357z" data-color="1"/>
        <path fill="#384AD3" d="M133.314 113.326a.39.39 0 01-.282-.121c-1.535-1.624-3.89-2.386-6.635-2.146a.388.388 0 01-.42-.352l-.002-.034c0-.198.152-.368.354-.386 2.984-.262 5.565.586 7.266 2.386a.389.389 0 01-.016.548.386.386 0 01-.265.105z" data-color="1"/>
        <clipPath id="e01f180a-b394-411f-93fb-1d35c2c4e1ba"/>
        <g clip-path="url(#e01f180a-b394-411f-93fb-1d35c2c4e1ba)">
            <path fill="#384AD3" d="M133.032 113.205c-1.535-1.624-3.89-2.386-6.635-2.146l-.068-.772c2.984-.262 5.565.586 7.266 2.386l-.563.532z" data-color="1"/>
        </g>
        <path fill="#384AD3" d="M118.156 114.658a.387.387 0 01-.251-.682c2.483-2.118 5.472-3.428 8.416-3.688a.387.387 0 01.42.352l.002.035a.388.388 0 01-.354.385c-2.786.245-5.62 1.491-7.981 3.506a.388.388 0 01-.252.092z" data-color="1"/>
        <clipPath id="e75a955f-aa8e-4780-9797-55f0954cfea5"/>
        <g clip-path="url(#e75a955f-aa8e-4780-9797-55f0954cfea5)">
            <path fill="#384AD3" d="M118.408 114.565l-.503-.589c2.483-2.118 5.472-3.428 8.416-3.688l.068.772c-2.786.245-5.62 1.49-7.981 3.505z" data-color="1"/>
        </g>
        <path fill="#384AD3" d="M79.1 121.72a.387.387 0 01-.282-.122c-.8-.848-2.035-1.245-3.48-1.121a.386.386 0 01-.42-.353l-.002-.034c0-.199.152-.368.354-.386 1.684-.147 3.145.337 4.111 1.361a.387.387 0 01-.281.655z" data-color="1"/>
        <clipPath id="60e6a03d-94ce-48ab-945e-06767f1ff95e"/>
        <g clip-path="url(#60e6a03d-94ce-48ab-945e-06767f1ff95e)">
            <path fill="#384AD3" d="M78.818 121.598c-.8-.848-2.035-1.245-3.48-1.121l-.067-.772c1.684-.147 3.145.337 4.111 1.361l-.564.532z" data-color="1"/>
        </g>
        <path fill="#384AD3" d="M70.818 122.442a.386.386 0 01-.251-.682c1.386-1.18 3.054-1.909 4.7-2.053a.386.386 0 01.42.352l.002.034a.389.389 0 01-.354.386c-1.485.13-3 .795-4.264 1.871a.393.393 0 01-.253.092z" data-color="1"/>
        <clipPath id="75bb2971-a196-49f0-b3e3-afdd753394af"/>
        <g clip-path="url(#75bb2971-a196-49f0-b3e3-afdd753394af)">
            <path fill="#384AD3" d="M71.07 122.349l-.502-.59c1.386-1.18 3.054-1.909 4.7-2.053l.068.772c-1.489.13-3.002.794-4.266 1.871z" data-color="1"/>
        </g>
    </g>
</svg>
