<svg width="103" height="74" viewBox="0 0 103 74" fill="none" xmlns="http://www.w3.org/2000/svg">
<path d="M89.847 65.651C89.933 69.421 71.075 72.911 47.725 73.448C24.375 73.985 5.375 71.366 5.289 67.597C5.202 63.827 24.061 60.337 47.411 59.8C70.761 59.263 89.76 61.882 89.847 65.651Z" fill="#E8E6E6"/>
<path d="M39.795 50.285C39.5981 50.2849 39.4087 50.2097 39.2653 50.0748C39.1218 49.94 39.0352 49.7555 39.023 49.559C38.631 43.34 36.88 38.226 34.091 35.157C34.0226 35.0817 33.9697 34.9936 33.9353 34.8979C33.9009 34.8021 33.8857 34.7005 33.8906 34.5989C33.8954 34.4972 33.9203 34.3976 33.9637 34.3055C34.0071 34.2135 34.0682 34.1309 34.1435 34.0625C34.2188 33.9941 34.3069 33.9412 34.4026 33.9068C34.4984 33.8724 34.6 33.8572 34.7016 33.8621C34.8033 33.8669 34.9029 33.8918 34.995 33.9352C35.087 33.9786 35.1696 34.0397 35.238 34.115C38.262 37.443 40.156 42.894 40.57 49.462C40.5765 49.5635 40.5629 49.6653 40.5301 49.7616C40.4972 49.8579 40.4457 49.9467 40.3784 50.0231C40.3112 50.0994 40.2295 50.1618 40.1382 50.2065C40.0468 50.2513 39.9475 50.2776 39.846 50.284L39.795 50.285Z" fill="#282B2D"/>
<path d="M97.666 46.021C97.5588 46.0211 97.4527 45.9989 97.3545 45.9559C97.2563 45.9129 97.168 45.85 97.0954 45.7711C97.0227 45.6923 96.9672 45.5992 96.9324 45.4978C96.8976 45.3964 96.8842 45.2889 96.893 45.182C97.512 37.603 97.334 23.16 92.746 17.098C92.6846 17.0169 92.6398 16.9245 92.6141 16.8261C92.5884 16.7277 92.5824 16.6252 92.5963 16.5244C92.6244 16.321 92.7322 16.137 92.896 16.013C93.0598 15.889 93.2661 15.8352 93.4696 15.8633C93.673 15.8914 93.857 15.9992 93.981 16.163C99.977 24.086 98.612 43.16 98.436 45.309C98.4207 45.5027 98.3329 45.6836 98.1902 45.8155C98.0475 45.9475 97.8604 46.0208 97.666 46.021Z" fill="#282B2D"/>
<path d="M76.748 65.708C76.6278 65.7081 76.5093 65.68 76.402 65.626L72.763 63.806C72.4348 63.642 72.162 63.3852 71.9785 63.0675C71.7951 62.7498 71.709 62.3852 71.731 62.019C72.261 53.353 72.927 42.885 73.094 42.221C73.1441 42.0217 73.2712 41.8504 73.4474 41.7446C73.6236 41.6389 73.8346 41.6074 74.034 41.657C74.2315 41.7058 74.4017 41.8305 74.5079 42.0041C74.614 42.1776 74.6475 42.386 74.601 42.584C74.485 43.21 73.966 50.868 73.278 62.113C73.2746 62.1761 73.2897 62.2388 73.3215 62.2933C73.3533 62.3479 73.4004 62.3919 73.457 62.42L77.095 64.24C77.2511 64.3181 77.3762 64.4467 77.4501 64.6048C77.5241 64.763 77.5424 64.9414 77.5023 65.1113C77.4621 65.2811 77.3658 65.4325 77.2289 65.5408C77.092 65.6491 76.9226 65.708 76.748 65.708Z" fill="#282B2D"/>
<path d="M66.065 65.708C65.9448 65.7081 65.8263 65.68 65.719 65.626L62.08 63.806C61.7516 63.6421 61.4786 63.3851 61.2951 63.0672C61.1116 62.7493 61.0256 62.3844 61.048 62.018C61.578 53.353 62.244 42.884 62.411 42.221C62.4613 42.0218 62.5884 41.8507 62.7646 41.745C62.9407 41.6393 63.1516 41.6077 63.351 41.657C63.5485 41.7058 63.7187 41.8305 63.8249 42.0041C63.931 42.1776 63.9645 42.386 63.918 42.584C63.802 43.21 63.283 50.868 62.595 62.113C62.5914 62.1761 62.6065 62.2388 62.6383 62.2934C62.6701 62.348 62.7173 62.392 62.774 62.42L66.413 64.24C66.5692 64.3182 66.6943 64.4468 66.7682 64.6051C66.8421 64.7633 66.8604 64.9418 66.8202 65.1118C66.7799 65.2817 66.6834 65.433 66.5463 65.5413C66.4092 65.6495 66.2396 65.7082 66.065 65.708Z" fill="#282B2D"/>
<path d="M102.006 3.58602L100.714 1.99801C100.487 1.72006 100.196 1.5017 99.866 1.36193C99.5357 1.22215 99.1763 1.16519 98.819 1.19601L56.502 4.89901C56.0653 4.93722 55.65 5.10526 55.3096 5.38149C54.9692 5.65773 54.7193 6.02952 54.592 6.44902L43.935 41.567C43.8143 41.9644 43.8088 42.3878 43.9191 42.7882C44.0294 43.1886 44.2509 43.5495 44.558 43.829L46.102 45.235C46.555 45.648 47.162 45.853 47.772 45.799L89.886 42.115C90.3227 42.0768 90.738 41.9088 91.0784 41.6325C91.4188 41.3563 91.6687 40.9845 91.796 40.565L102.404 5.61001C102.509 5.26587 102.527 4.90127 102.458 4.54832C102.388 4.19537 102.233 3.86491 102.006 3.58602Z" fill="#E8E6E6"/>
<path d="M47.583 46.197C46.9387 46.1969 46.3176 45.9566 45.841 45.523L44.296 44.116C43.563 43.448 43.276 42.404 43.563 41.456L54.221 6.33801C54.3693 5.84347 54.6631 5.40502 55.064 5.07971C55.465 4.75439 55.9545 4.55727 56.469 4.514L98.786 0.812007C99.2063 0.775193 99.6292 0.841895 100.018 1.00628C100.406 1.17067 100.749 1.42774 101.015 1.75501L102.307 3.343C102.575 3.67108 102.757 4.05999 102.839 4.4754C102.921 4.89081 102.899 5.31997 102.776 5.72501L92.168 40.681C92.0199 41.1757 91.7262 41.6143 91.3253 41.9396C90.9243 42.265 90.4346 42.462 89.92 42.505L47.806 46.189C47.7318 46.1942 47.6574 46.1968 47.583 46.197ZM99.011 1.57701C98.9583 1.57736 98.9056 1.5797 98.853 1.584L56.536 5.28601C56.1761 5.31643 55.8336 5.45438 55.5531 5.68193C55.2726 5.90947 55.067 6.21611 54.963 6.56201L44.305 41.68C44.103 42.344 44.305 43.076 44.818 43.543L46.363 44.95C46.5482 45.1178 46.7659 45.2457 47.0026 45.3257C47.2393 45.4057 47.49 45.4361 47.739 45.415L89.853 41.731C90.213 41.7007 90.5555 41.5628 90.836 41.3352C91.1165 41.1077 91.3221 40.801 91.426 40.455L102.034 5.499C102.12 5.21537 102.135 4.91494 102.078 4.6241C102.021 4.33326 101.893 4.06092 101.706 3.831L100.414 2.24301C100.244 2.03479 100.03 1.86699 99.7876 1.75179C99.5449 1.63659 99.2796 1.57688 99.011 1.57701Z" fill="#282B2D"/>
<path d="M47.126 45.721C47.0542 45.7209 46.9835 45.7039 46.9195 45.6715C46.8554 45.6391 46.7999 45.5922 46.7573 45.5344C46.7147 45.4766 46.6862 45.4097 46.6742 45.3389C46.6622 45.2682 46.6669 45.1956 46.688 45.127L57.585 9.744C57.7238 9.28952 57.9953 8.88696 58.3647 8.5881C58.7342 8.28924 59.1846 8.10775 59.658 8.06699L101.019 4.38699C101.055 4.38299 101.09 4.383 101.126 4.383C101.499 4.383 101.842 4.55599 102.066 4.85799C102.289 5.15799 102.355 5.537 102.246 5.896L91.882 40.173C91.884 40.173 91.547 42.141 88.976 42.141L47.154 45.723L47.126 45.721Z" fill="white"/>
<path d="M101.125 4.575C101.278 4.57551 101.428 4.61166 101.564 4.68056C101.7 4.74947 101.819 4.84923 101.909 4.9719C102 5.09457 102.061 5.23675 102.087 5.38711C102.113 5.53748 102.104 5.69188 102.06 5.838L91.696 40.114C91.696 40.114 91.414 41.944 88.975 41.944L47.145 45.525L47.125 45.526C47.0836 45.526 47.0427 45.5162 47.0057 45.4975C46.9687 45.4788 46.9366 45.4517 46.912 45.4183C46.8874 45.3849 46.871 45.3463 46.864 45.3054C46.8571 45.2645 46.8598 45.2226 46.872 45.183L57.769 9.8C57.8976 9.38299 58.1475 9.01372 58.4867 8.73927C58.826 8.46482 59.2393 8.29763 59.674 8.259L101.035 4.58C101.065 4.57687 101.095 4.5752 101.125 4.575ZM101.125 4.187C101.084 4.187 101.043 4.189 101.001 4.192L59.64 7.871C59.1282 7.91495 58.6412 8.1111 58.2418 8.43422C57.8424 8.75733 57.5489 9.19262 57.399 9.68401L46.502 45.069C46.4726 45.1666 46.4664 45.2696 46.4838 45.37C46.5012 45.4704 46.5417 45.5653 46.6022 45.6473C46.6626 45.7293 46.7414 45.7961 46.8321 45.8424C46.9229 45.8887 47.0231 45.9132 47.125 45.914L47.175 45.912L88.992 42.332C91.514 42.324 92.009 40.499 92.071 40.211L102.43 5.95C102.556 5.531 102.48 5.09 102.219 4.74C102.093 4.56804 101.929 4.42829 101.738 4.33218C101.548 4.23606 101.338 4.18631 101.125 4.187Z" fill="#282B2D"/>
<path d="M56.37 13.729L53.176 10.624L53.447 10.347L56.513 13.328L101.381 9.403L101.415 9.788L56.37 13.729Z" fill="#282B2D"/>
<path d="M25.315 67.523C25.1783 67.523 25.0441 67.4867 24.926 67.418L21.814 65.606C21.6902 65.5338 21.5888 65.4286 21.5212 65.3022C21.4536 65.1758 21.4224 65.0331 21.431 64.89C21.682 60.752 22.28 51.067 22.42 50.505C22.4671 50.3049 22.5917 50.1317 22.7665 50.0235C22.9413 49.9153 23.1519 49.8809 23.352 49.928C23.5521 49.9751 23.7253 50.0997 23.8335 50.2745C23.9417 50.4493 23.9761 50.6599 23.929 50.86C23.823 51.493 23.331 59.182 23.006 64.507L25.706 66.079C25.8522 66.1654 25.966 66.2974 26.0299 66.4547C26.0939 66.612 26.1045 66.7859 26.0601 66.9498C26.0158 67.1137 25.9188 67.2586 25.7842 67.3621C25.6496 67.4656 25.4848 67.5222 25.315 67.523Z" fill="#282B2D"/>
<path d="M17.846 67.523C17.7093 67.523 17.5751 67.4867 17.457 67.418L14.345 65.606C14.2212 65.5338 14.1198 65.4286 14.0522 65.3022C13.9846 65.1758 13.9534 65.0331 13.962 64.89C14.213 60.752 14.811 51.067 14.951 50.505C14.9981 50.3049 15.1227 50.1317 15.2975 50.0235C15.4723 49.9153 15.6829 49.8809 15.883 49.928C16.0831 49.9751 16.2563 50.0997 16.3645 50.2745C16.4727 50.4493 16.5071 50.6599 16.46 50.86C16.354 51.493 15.862 59.182 15.537 64.507L18.237 66.079C18.3832 66.1654 18.497 66.2974 18.5609 66.4547C18.6249 66.612 18.6355 66.7859 18.5911 66.9498C18.5468 67.1137 18.4498 67.2586 18.3152 67.3621C18.1806 67.4656 18.0158 67.5222 17.846 67.523Z" fill="#282B2D"/>
<path d="M39.656 19.298L39.197 18.734C38.9704 18.4558 38.6791 18.2374 38.3486 18.0977C38.0181 17.9581 37.6584 17.9015 37.301 17.933L17.427 19.684C16.9906 19.7225 16.5757 19.8905 16.2356 20.1665C15.8954 20.4425 15.6455 20.8139 15.518 21.233L7.026 49.186C6.78 49.998 7.022 50.436 7.649 51.007L8.205 51.513C8.659 51.926 9.071 52.518 11.027 52.518L29.67 50.774C30.1064 50.7355 30.5213 50.5675 30.8614 50.2915C31.2016 50.0155 31.4515 49.6441 31.579 49.225L40.055 21.323C40.1595 20.9786 40.1778 20.6138 40.1082 20.2607C40.0386 19.9076 39.8834 19.577 39.656 19.298Z" fill="#E8E6E6"/>
<path d="M11.054 52.905C9.10001 52.905 8.50301 52.333 8.06701 51.916C8.02619 51.8768 7.98485 51.8381 7.94301 51.8L7.38701 51.294C6.70701 50.674 6.347 50.087 6.655 49.074L15.147 21.121C15.2953 20.6271 15.5887 20.1892 15.989 19.8641C16.3894 19.539 16.8782 19.3418 17.392 19.298L37.266 17.547C37.6867 17.5092 38.1102 17.5754 38.4993 17.7398C38.8884 17.9043 39.231 18.1619 39.497 18.49L39.956 19.054C40.5 19.722 40.675 20.612 40.424 21.436L31.948 49.338C31.7997 49.8319 31.5063 50.2698 31.106 50.5949C30.7057 50.92 30.2168 51.1172 29.703 51.161L11.063 52.905H11.054ZM37.495 18.312C37.442 18.312 37.389 18.315 37.336 18.319L17.462 20.07C17.1022 20.1005 16.7599 20.2385 16.4796 20.466C16.1992 20.6936 15.9938 21.0002 15.89 21.346L7.398 49.299C7.218 49.893 7.323 50.185 7.911 50.721L8.467 51.227L8.605 51.356C8.985 51.72 9.415 52.132 11.029 52.132L29.635 50.39C29.9951 50.3596 30.3377 50.2217 30.6183 49.9942C30.899 49.7667 31.1048 49.46 31.209 49.114L39.685 21.213C39.7711 20.9294 39.7862 20.629 39.729 20.3381C39.6718 20.0473 39.5441 19.7749 39.357 19.545L38.898 18.981C38.7288 18.772 38.5149 18.6035 38.2722 18.4878C38.0295 18.372 37.7639 18.312 37.495 18.312Z" fill="#282B2D"/>
<path d="M0.857003 48.266C0.732323 48.266 0.609481 48.236 0.498902 48.1784C0.388323 48.1208 0.293275 48.0373 0.221822 47.9352C0.150368 47.833 0.104618 47.7151 0.0884598 47.5915C0.0723016 47.4678 0.0862127 47.3421 0.129006 47.225C2.02401 42.036 6.483 35.163 12.808 32.87C12.9989 32.8097 13.2058 32.8255 13.3853 32.9142C13.5648 33.0029 13.7032 33.1575 13.7713 33.3458C13.8395 33.534 13.8323 33.7414 13.7511 33.9244C13.67 34.1075 13.5213 34.2521 13.336 34.328C7.512 36.438 3.365 42.881 1.585 47.757C1.53022 47.9061 1.43108 48.0348 1.30092 48.1258C1.17075 48.2168 1.01582 48.2657 0.857003 48.266Z" fill="#282B2D"/>
<path d="M11.835 52.118C11.5226 52.1186 11.2144 52.0453 10.9357 51.9042C10.657 51.7631 10.4155 51.5581 10.231 51.306C10.044 51.0555 9.91866 50.7643 9.86532 50.4562C9.81197 50.1482 9.83208 49.8318 9.92401 49.533L17.834 23.496C17.949 23.1132 18.1764 22.7738 18.4867 22.5219C18.7969 22.2699 19.1758 22.117 19.574 22.083L38.932 20.377C39.0864 20.3622 39.2419 20.3877 39.3834 20.4512C39.5249 20.5147 39.6474 20.6139 39.739 20.739C39.8237 20.8521 39.8804 20.9836 39.9046 21.1228C39.9287 21.262 39.9196 21.405 39.878 21.54L31.495 49.134C31.3801 49.5168 31.1528 49.8563 30.8425 50.1083C30.5322 50.3603 30.1533 50.5131 29.755 50.547L12.016 52.11C11.956 52.116 11.895 52.118 11.835 52.118Z" fill="white"/>
<path d="M39.017 20.567C39.242 20.567 39.449 20.672 39.585 20.855C39.6516 20.9438 39.6961 21.0471 39.7149 21.1565C39.7336 21.2658 39.7261 21.3781 39.693 21.484L31.31 49.078C31.2062 49.4238 31.0008 49.7304 30.7204 49.958C30.4401 50.1855 30.0978 50.3235 29.738 50.354L11.999 51.917C11.6903 51.9458 11.3795 51.894 11.0967 51.7668C10.814 51.6395 10.5692 51.4411 10.386 51.191C10.2168 50.9648 10.1035 50.7016 10.0555 50.4232C10.0076 50.1447 10.0262 49.8589 10.11 49.589L18.02 23.552C18.1238 23.2062 18.3293 22.8996 18.6096 22.672C18.8899 22.4445 19.2322 22.3065 19.592 22.276L38.951 20.57C38.9729 20.568 38.995 20.567 39.017 20.567ZM39.017 20.179C38.984 20.179 38.951 20.181 38.917 20.183L19.558 21.889C19.1216 21.9275 18.7067 22.0955 18.3666 22.3715C18.0264 22.6475 17.7765 23.0189 17.649 23.438L9.739 49.475C9.63458 49.8189 9.61611 50.1831 9.68519 50.5357C9.75426 50.8884 9.90879 51.2187 10.1352 51.4977C10.3617 51.7768 10.6531 51.996 10.9839 52.1362C11.3148 52.2765 11.675 52.3334 12.033 52.302L29.772 50.739C30.2084 50.7005 30.6233 50.5325 30.9634 50.2565C31.3036 49.9805 31.5535 49.6091 31.681 49.19L40.064 21.596C40.114 21.4322 40.1249 21.259 40.0959 21.0902C40.0669 20.9215 39.9988 20.7618 39.897 20.6241C39.7952 20.4864 39.6626 20.3744 39.5098 20.2971C39.357 20.2198 39.1882 20.1794 39.017 20.179Z" fill="#282B2D"/>
<path d="M16.884 25.994L14.632 23.805L14.902 23.528L17.026 25.593L39.45 23.617L39.484 24.003L16.884 25.994Z" fill="#282B2D"/>
<path d="M10.19 48.351L7.714 46.17L7.97001 45.879L10.32 47.951L32.525 45.975L32.559 46.361L10.19 48.351Z" fill="#282B2D"/>
<path d="M39.797 50.285C39.6825 50.2849 39.5695 50.2595 39.4659 50.2106C39.3624 50.1617 39.271 50.0904 39.1983 50.002C39.1256 49.9136 39.0733 49.8102 39.0452 49.6992C39.0172 49.5882 39.014 49.4724 39.036 49.36C39.453 47.244 43.335 28.52 51.263 22.531C51.3442 22.4697 51.4366 22.4249 51.535 22.3993C51.6335 22.3737 51.736 22.3678 51.8368 22.3818C51.9375 22.3958 52.0345 22.4295 52.1222 22.481C52.21 22.5326 52.2867 22.6008 52.348 22.682C52.4093 22.7631 52.4541 22.8556 52.4797 22.954C52.5053 23.0525 52.5112 23.155 52.4972 23.2558C52.4832 23.3565 52.4495 23.4535 52.3979 23.5412C52.3464 23.629 52.2782 23.7057 52.197 23.767C46.131 28.35 42.026 42.199 40.557 49.66C40.5219 49.8359 40.4271 49.9942 40.2885 50.1081C40.15 50.2221 39.9763 50.2845 39.797 50.285Z" fill="#282B2D"/>
<path d="M84.406 21.948C85.354 21.295 86.494 21.276 87.116 21.853C87.847 21.122 88.077 20.127 87.61 19.449C87.062 18.653 85.759 18.598 84.702 19.326C83.645 20.055 83.233 21.29 83.781 22.087C83.838 22.17 83.907 22.238 83.978 22.305C84.1098 22.1735 84.253 22.0541 84.406 21.948Z" fill="#282B2D"/>
<path d="M21.09 34.232C20.782 33.786 20.052 33.755 19.459 34.164C18.866 34.573 18.635 35.266 18.943 35.712C18.975 35.758 19.013 35.797 19.054 35.835C19.126 35.763 19.205 35.695 19.293 35.635C19.825 35.269 20.465 35.258 20.813 35.582C21.223 35.17 21.352 34.612 21.09 34.232Z" fill="#282B2D"/>
<path d="M29.259 34.716C29.791 34.35 30.431 34.339 30.779 34.663C31.189 34.253 31.319 33.695 31.056 33.315C30.748 32.869 30.018 32.838 29.425 33.247C28.832 33.656 28.601 34.349 28.909 34.795C28.941 34.841 28.979 34.88 29.02 34.918C29.092 34.845 29.171 34.777 29.259 34.716Z" fill="#282B2D"/>
<path d="M21.656 50.044C21.5609 50.0459 21.4664 50.0291 21.3779 49.9944C21.2893 49.9597 21.2085 49.9079 21.14 49.842C20.824 49.526 20.89 48.946 21.287 48.55C21.684 48.153 22.264 48.087 22.579 48.402C22.894 48.717 22.829 49.298 22.431 49.694C22.2566 49.8738 22.0291 49.9929 21.782 50.034C21.7404 50.0409 21.6982 50.0443 21.656 50.044ZM21.562 48.824C21.32 49.066 21.253 49.407 21.415 49.569C21.513 49.667 21.654 49.663 21.73 49.652C21.8939 49.623 22.0444 49.5428 22.16 49.423C22.402 49.181 22.469 48.84 22.308 48.678C22.145 48.515 21.804 48.582 21.562 48.824Z" fill="#282B2D"/>
<path d="M61.315 11.427C61.2206 11.4295 61.1267 11.4132 61.0388 11.3788C60.9508 11.3445 60.8707 11.2928 60.803 11.227C60.487 10.911 60.553 10.331 60.95 9.93501C61.347 9.53801 61.928 9.47201 62.243 9.78701C62.3231 9.87189 62.3822 9.97436 62.4155 10.0862C62.4488 10.198 62.4555 10.3161 62.435 10.431C62.3939 10.6781 62.2748 10.9056 62.095 11.08C61.8904 11.2933 61.6104 11.4179 61.315 11.427ZM61.224 10.209C60.982 10.451 60.916 10.792 61.077 10.954C61.239 11.116 61.58 11.048 61.822 10.806C61.9418 10.6904 62.0219 10.5399 62.051 10.376C62.062 10.3 62.066 10.159 61.968 10.061C61.807 9.89901 61.465 9.967 61.224 10.209Z" fill="#282B2D"/>
<path d="M63.93 11.259C63.8356 11.2615 63.7417 11.2451 63.6538 11.2108C63.5658 11.1764 63.4857 11.1248 63.418 11.059C63.102 10.743 63.168 10.163 63.565 9.767C63.75 9.582 63.981 9.461 64.214 9.427C64.3289 9.40623 64.447 9.41279 64.5589 9.44615C64.6708 9.4795 64.7733 9.53871 64.858 9.619C65.174 9.935 65.108 10.515 64.71 10.911C64.5058 11.1249 64.2256 11.2499 63.93 11.259ZM63.839 10.041C63.597 10.283 63.531 10.624 63.692 10.786C63.854 10.948 64.195 10.88 64.437 10.638C64.679 10.396 64.746 10.055 64.585 9.893C64.488 9.795 64.346 9.799 64.27 9.81C64.1058 9.84025 63.9551 9.921 63.839 10.041Z" fill="#282B2D"/>
<path d="M66.545 11.091C66.4506 11.0935 66.3567 11.0772 66.2688 11.0428C66.1808 11.0085 66.1007 10.9568 66.033 10.891C65.9529 10.8061 65.8938 10.7037 65.8605 10.5918C65.8272 10.48 65.8205 10.3619 65.841 10.247C65.875 10.014 65.995 9.78301 66.18 9.59801C66.577 9.20201 67.158 9.13501 67.473 9.45001C67.788 9.76501 67.723 10.346 67.325 10.742C67.1215 10.957 66.841 11.0825 66.545 11.091ZM66.453 9.87401C66.3332 9.9896 66.2531 10.1401 66.224 10.304C66.213 10.38 66.209 10.521 66.307 10.618C66.469 10.781 66.81 10.712 67.052 10.471C67.294 10.229 67.361 9.88801 67.2 9.72601C67.036 9.56301 66.695 9.63201 66.453 9.87401Z" fill="#282B2D"/>
<path d="M65.263 23.507C66.211 22.854 67.351 22.835 67.973 23.412C68.704 22.681 68.934 21.686 68.467 21.008C67.919 20.212 66.616 20.157 65.559 20.885C64.502 21.614 64.09 22.849 64.638 23.646C64.695 23.729 64.764 23.797 64.835 23.864C64.964 23.736 65.105 23.615 65.263 23.507Z" fill="#282B2D"/>
<path d="M83.314 31.085C83.2613 31.0849 83.2091 31.0742 83.1606 31.0534C83.1121 31.0326 83.0684 31.0022 83.032 30.964C81.497 29.34 79.142 28.578 76.397 28.818C76.2947 28.8269 76.193 28.7948 76.1142 28.7288C76.0355 28.6628 75.9862 28.5683 75.977 28.466L75.975 28.432C75.975 28.234 76.127 28.064 76.329 28.046C79.313 27.784 81.894 28.632 83.595 30.432C83.6652 30.507 83.7029 30.6066 83.6999 30.7093C83.6969 30.812 83.6535 30.9093 83.579 30.98C83.5073 31.0475 83.4125 31.0851 83.314 31.085Z" fill="#282B2D"/>
<path d="M68.156 32.417C68.0767 32.4171 67.9993 32.3929 67.9343 32.3476C67.8693 32.3023 67.8197 32.2381 67.7923 32.1637C67.7649 32.0893 67.7611 32.0083 67.7812 31.9316C67.8014 31.8549 67.8446 31.7863 67.905 31.735C70.388 29.617 73.377 28.307 76.321 28.047C76.3717 28.0425 76.4228 28.048 76.4714 28.0632C76.5199 28.0785 76.565 28.1032 76.604 28.1359C76.6431 28.1686 76.6752 28.2086 76.6987 28.2538C76.7222 28.2989 76.7366 28.3483 76.741 28.399L76.743 28.434C76.7426 28.5308 76.7061 28.6239 76.6406 28.6951C76.5751 28.7663 76.4854 28.8105 76.389 28.819C73.603 29.064 70.769 30.31 68.408 32.325C68.3376 32.3847 68.2483 32.4173 68.156 32.417Z" fill="#282B2D"/>
<path d="M29.1 39.479C29.0472 39.479 28.9949 39.4682 28.9464 39.4472C28.8979 39.4262 28.8542 39.3955 28.818 39.357C28.018 38.509 26.783 38.112 25.338 38.236C25.2872 38.2407 25.236 38.2352 25.1873 38.2199C25.1386 38.2047 25.0934 38.1799 25.0544 38.1471C25.0153 38.1143 24.9831 38.074 24.9597 38.0287C24.9363 37.9834 24.9221 37.9338 24.918 37.883L24.916 37.849C24.916 37.65 25.068 37.481 25.27 37.463C26.954 37.316 28.415 37.8 29.381 38.824C29.4336 38.8788 29.469 38.948 29.4826 39.0228C29.4962 39.0976 29.4874 39.1747 29.4575 39.2446C29.4275 39.3144 29.3776 39.3739 29.314 39.4156C29.2505 39.4573 29.176 39.4794 29.1 39.479Z" fill="#282B2D"/>
<path d="M20.818 40.201C20.7385 40.2017 20.6607 40.1777 20.5953 40.1325C20.5298 40.0873 20.48 40.023 20.4525 39.9483C20.425 39.8737 20.4213 39.7924 20.4418 39.7155C20.4623 39.6387 20.506 39.57 20.567 39.519C21.953 38.339 23.621 37.61 25.267 37.466C25.3177 37.4613 25.3689 37.4667 25.4175 37.4819C25.4661 37.4971 25.5113 37.5218 25.5503 37.5545C25.5894 37.5872 25.6215 37.6274 25.645 37.6726C25.6685 37.7178 25.6827 37.7672 25.687 37.818L25.689 37.852C25.6887 37.9488 25.6522 38.0421 25.5867 38.1135C25.5212 38.1849 25.4315 38.2293 25.335 38.238C23.85 38.368 22.335 39.033 21.071 40.109C21.0001 40.1685 20.9105 40.2011 20.818 40.201Z" fill="#282B2D"/>
</svg>
