<svg width="160" height="112" viewBox="0 0 160 112" fill="none" xmlns="http://www.w3.org/2000/svg">
<path d="M0 41.565C5.044 34.546 24.785 6.91 29.939 0.550003H38.932V39.811H48.363V47.816H38.932V65.143H30.488V47.816H0V41.565ZM30.487 39.81V29.392C30.487 20.948 30.707 13.491 30.926 10.2H30.817C27.198 15.244 12.502 36.191 9.87 39.81H30.487Z" fill="#282B2D"/>
<path d="M80.055 0C97.273 0 103.853 16.121 103.853 32.901C103.853 50.996 96.177 66.24 80.165 66.24C64.921 66.24 56.038 52.751 56.038 32.901C56.038 12.942 65.47 0 80.055 0ZM80.384 58.015C90.144 58.015 94.531 47.049 94.531 32.901C94.531 17.218 89.047 8.116 79.726 8.116C71.282 8.116 65.031 16.889 65.031 32.681C65.031 47.378 70.404 58.015 80.384 58.015Z" fill="#282B2D"/>
<path d="M111.637 41.565C116.681 34.546 136.422 6.91 141.576 0.550003H150.569V39.811H160V47.816H150.569V65.143H142.125V47.816H111.638V41.565H111.637ZM142.124 39.81V29.392C142.124 20.948 142.344 13.491 142.563 10.2H142.454C138.834 15.244 124.139 36.191 121.507 39.81H142.124Z" fill="#282B2D"/>
<path d="M119.847 103.651C119.933 107.421 101.075 110.911 77.725 111.448C54.375 111.985 35.375 109.366 35.289 105.597C35.202 101.827 54.061 98.337 77.411 97.8C100.761 97.263 119.76 99.882 119.847 103.651Z" fill="#E8E6E6"/>
<path d="M69.795 88.285C69.5981 88.2849 69.4087 88.2097 69.2653 88.0748C69.1218 87.94 69.0352 87.7555 69.023 87.559C68.631 81.34 66.88 76.226 64.091 73.157C64.0226 73.0817 63.9697 72.9936 63.9353 72.8979C63.9009 72.8021 63.8857 72.7005 63.8906 72.5989C63.8954 72.4972 63.9203 72.3976 63.9637 72.3055C64.0071 72.2135 64.0682 72.1309 64.1435 72.0625C64.2188 71.9941 64.3069 71.9412 64.4026 71.9068C64.4984 71.8724 64.6 71.8572 64.7016 71.8621C64.8033 71.8669 64.9029 71.8918 64.995 71.9352C65.087 71.9786 65.1696 72.0397 65.238 72.115C68.262 75.443 70.156 80.894 70.57 87.462C70.5765 87.5635 70.5629 87.6653 70.5301 87.7616C70.4972 87.8579 70.4457 87.9467 70.3784 88.0231C70.3112 88.0994 70.2295 88.1618 70.1382 88.2065C70.0468 88.2513 69.9475 88.2776 69.846 88.284L69.795 88.285Z" fill="#282B2D"/>
<path d="M127.666 84.021C127.559 84.0211 127.453 83.9989 127.354 83.9559C127.256 83.9129 127.168 83.85 127.095 83.7711C127.023 83.6923 126.967 83.5992 126.932 83.4978C126.898 83.3964 126.884 83.2889 126.893 83.182C127.512 75.603 127.334 61.16 122.746 55.098C122.685 55.0169 122.64 54.9245 122.614 54.8261C122.588 54.7277 122.582 54.6252 122.596 54.5244C122.624 54.321 122.732 54.137 122.896 54.013C123.06 53.889 123.266 53.8352 123.47 53.8633C123.673 53.8914 123.857 53.9992 123.981 54.163C129.977 62.086 128.612 81.16 128.436 83.309C128.421 83.5027 128.333 83.6836 128.19 83.8155C128.048 83.9475 127.86 84.0208 127.666 84.021Z" fill="#282B2D"/>
<path d="M106.748 103.708C106.628 103.708 106.509 103.68 106.402 103.626L102.763 101.806C102.435 101.642 102.162 101.385 101.979 101.068C101.795 100.75 101.709 100.385 101.731 100.019C102.261 91.353 102.927 80.885 103.094 80.221C103.144 80.0217 103.271 79.8504 103.447 79.7446C103.624 79.6389 103.835 79.6074 104.034 79.657C104.231 79.7058 104.402 79.8305 104.508 80.0041C104.614 80.1776 104.647 80.386 104.601 80.584C104.485 81.21 103.966 88.868 103.278 100.113C103.275 100.176 103.29 100.239 103.321 100.293C103.353 100.348 103.4 100.392 103.457 100.42L107.095 102.24C107.251 102.318 107.376 102.447 107.45 102.605C107.524 102.763 107.542 102.941 107.502 103.111C107.462 103.281 107.366 103.432 107.229 103.541C107.092 103.649 106.923 103.708 106.748 103.708Z" fill="#282B2D"/>
<path d="M96.065 103.708C95.9448 103.708 95.8263 103.68 95.719 103.626L92.08 101.806C91.7516 101.642 91.4786 101.385 91.2951 101.067C91.1116 100.749 91.0256 100.384 91.048 100.018C91.578 91.353 92.244 80.884 92.411 80.221C92.4613 80.0218 92.5884 79.8507 92.7646 79.745C92.9407 79.6393 93.1516 79.6077 93.351 79.657C93.5485 79.7058 93.7187 79.8305 93.8249 80.0041C93.931 80.1776 93.9645 80.386 93.918 80.584C93.802 81.21 93.283 88.868 92.595 100.113C92.5914 100.176 92.6065 100.239 92.6383 100.293C92.6701 100.348 92.7173 100.392 92.774 100.42L96.413 102.24C96.5692 102.318 96.6943 102.447 96.7682 102.605C96.8421 102.763 96.8604 102.942 96.8202 103.112C96.7799 103.282 96.6834 103.433 96.5463 103.541C96.4092 103.649 96.2396 103.708 96.065 103.708Z" fill="#282B2D"/>
<path d="M132.006 41.586L130.714 39.998C130.487 39.72 130.196 39.5017 129.866 39.3619C129.536 39.2221 129.176 39.1652 128.819 39.196L86.502 42.899C86.0653 42.9372 85.65 43.1052 85.3096 43.3815C84.9692 43.6577 84.7193 44.0295 84.592 44.449L73.935 79.567C73.8143 79.9644 73.8088 80.3878 73.9191 80.7882C74.0294 81.1885 74.2509 81.5494 74.558 81.829L76.102 83.235C76.555 83.648 77.162 83.853 77.772 83.799L119.886 80.115C120.323 80.0768 120.738 79.9088 121.078 79.6325C121.419 79.3563 121.669 78.9845 121.796 78.565L132.404 43.61C132.509 43.2659 132.527 42.9013 132.458 42.5483C132.388 42.1954 132.233 41.8649 132.006 41.586Z" fill="#E8E6E6"/>
<path d="M77.583 84.197C76.9387 84.1969 76.3176 83.9566 75.841 83.523L74.296 82.116C73.563 81.448 73.276 80.404 73.563 79.456L84.221 44.338C84.3693 43.8435 84.6631 43.405 85.064 43.0797C85.4649 42.7544 85.9545 42.5573 86.469 42.514L128.786 38.812C129.206 38.7752 129.629 38.8419 130.018 39.0063C130.406 39.1707 130.749 39.4277 131.015 39.755L132.307 41.343C132.575 41.6711 132.757 42.06 132.839 42.4754C132.921 42.8908 132.899 43.32 132.776 43.725L122.168 78.681C122.02 79.1757 121.726 79.6143 121.325 79.9396C120.924 80.265 120.435 80.462 119.92 80.505L77.806 84.189C77.7318 84.1942 77.6574 84.1968 77.583 84.197ZM129.011 39.577C128.958 39.5774 128.906 39.5797 128.853 39.584L86.536 43.286C86.1761 43.3164 85.8336 43.4544 85.5531 43.6819C85.2726 43.9095 85.067 44.2161 84.963 44.562L74.305 79.68C74.103 80.344 74.305 81.076 74.818 81.543L76.363 82.95C76.5481 83.1178 76.7659 83.2457 77.0026 83.3257C77.2393 83.4057 77.49 83.4361 77.739 83.415L119.853 79.731C120.213 79.7007 120.555 79.5628 120.836 79.3352C121.117 79.1077 121.322 78.801 121.426 78.455L132.034 43.499C132.12 43.2154 132.135 42.9149 132.078 42.6241C132.021 42.3333 131.893 42.0609 131.706 41.831L130.414 40.243C130.244 40.0348 130.03 39.867 129.788 39.7518C129.545 39.6366 129.28 39.5769 129.011 39.577Z" fill="#282B2D"/>
<path d="M77.126 83.721C77.0542 83.7209 76.9835 83.7039 76.9194 83.6715C76.8554 83.6391 76.7999 83.5922 76.7573 83.5344C76.7147 83.4766 76.6862 83.4097 76.6742 83.3389C76.6622 83.2682 76.6669 83.1956 76.688 83.127L87.585 47.744C87.7237 47.2895 87.9953 46.887 88.3647 46.5881C88.7342 46.2892 89.1846 46.1078 89.658 46.067L131.019 42.387C131.055 42.383 131.09 42.383 131.126 42.383C131.499 42.383 131.842 42.556 132.066 42.858C132.289 43.158 132.355 43.537 132.246 43.896L121.882 78.173C121.884 78.173 121.547 80.141 118.976 80.141L77.154 83.723L77.126 83.721Z" fill="white"/>
<path d="M131.125 42.575C131.278 42.5755 131.428 42.6117 131.564 42.6806C131.7 42.7495 131.819 42.8492 131.909 42.9719C132 43.0946 132.061 43.2367 132.087 43.3871C132.113 43.5375 132.104 43.6919 132.06 43.838L121.696 78.114C121.696 78.114 121.414 79.944 118.975 79.944L77.145 83.525L77.125 83.526C77.0836 83.526 77.0427 83.5162 77.0057 83.4975C76.9687 83.4788 76.9366 83.4517 76.912 83.4183C76.8874 83.3849 76.871 83.3463 76.864 83.3054C76.8571 83.2645 76.8598 83.2226 76.872 83.183L87.769 47.8C87.8976 47.383 88.1475 47.0137 88.4867 46.7393C88.826 46.4648 89.2393 46.2976 89.674 46.259L131.035 42.58C131.065 42.5769 131.095 42.5752 131.125 42.575ZM131.125 42.187C131.084 42.187 131.043 42.189 131.001 42.192L89.64 45.871C89.1282 45.9149 88.6412 46.1111 88.2418 46.4342C87.8424 46.7573 87.5489 47.1926 87.399 47.684L76.502 83.069C76.4726 83.1666 76.4664 83.2696 76.4838 83.37C76.5012 83.4704 76.5417 83.5653 76.6022 83.6473C76.6626 83.7293 76.7414 83.7961 76.8321 83.8424C76.9229 83.8887 77.0231 83.9132 77.125 83.914L77.175 83.912L118.992 80.332C121.514 80.324 122.009 78.499 122.071 78.211L132.43 43.95C132.556 43.531 132.48 43.09 132.219 42.74C132.093 42.568 131.929 42.4283 131.738 42.3322C131.548 42.2361 131.338 42.1863 131.125 42.187Z" fill="#282B2D"/>
<path d="M86.37 51.729L83.176 48.624L83.447 48.347L86.513 51.328L131.381 47.403L131.415 47.788L86.37 51.729Z" fill="#282B2D"/>
<path d="M55.315 105.523C55.1783 105.523 55.0441 105.487 54.926 105.418L51.814 103.606C51.6902 103.534 51.5888 103.429 51.5212 103.302C51.4536 103.176 51.4224 103.033 51.431 102.89C51.682 98.752 52.28 89.067 52.42 88.505C52.4671 88.3049 52.5917 88.1317 52.7665 88.0235C52.9413 87.9153 53.1519 87.8809 53.352 87.928C53.5521 87.9751 53.7253 88.0997 53.8335 88.2745C53.9417 88.4493 53.9761 88.6599 53.929 88.86C53.823 89.493 53.331 97.182 53.006 102.507L55.706 104.079C55.8522 104.165 55.966 104.297 56.0299 104.455C56.0939 104.612 56.1045 104.786 56.0601 104.95C56.0158 105.114 55.9188 105.259 55.7842 105.362C55.6496 105.466 55.4848 105.522 55.315 105.523Z" fill="#282B2D"/>
<path d="M47.846 105.523C47.7093 105.523 47.5751 105.487 47.457 105.418L44.345 103.606C44.2212 103.534 44.1198 103.429 44.0522 103.302C43.9846 103.176 43.9534 103.033 43.962 102.89C44.213 98.752 44.811 89.067 44.951 88.505C44.9981 88.3049 45.1227 88.1317 45.2975 88.0235C45.4723 87.9153 45.6829 87.8809 45.883 87.928C46.0831 87.9751 46.2563 88.0997 46.3645 88.2745C46.4727 88.4493 46.5071 88.6599 46.46 88.86C46.354 89.493 45.862 97.182 45.537 102.507L48.237 104.079C48.3832 104.165 48.497 104.297 48.5609 104.455C48.6249 104.612 48.6355 104.786 48.5911 104.95C48.5468 105.114 48.4498 105.259 48.3152 105.362C48.1806 105.466 48.0158 105.522 47.846 105.523Z" fill="#282B2D"/>
<path d="M69.656 57.298L69.197 56.734C68.9704 56.4558 68.6791 56.2374 68.3486 56.0977C68.0181 55.9581 67.6584 55.9015 67.301 55.933L47.427 57.684C46.9906 57.7225 46.5757 57.8905 46.2356 58.1665C45.8954 58.4425 45.6455 58.8139 45.518 59.233L37.026 87.186C36.78 87.998 37.022 88.436 37.649 89.007L38.205 89.513C38.659 89.926 39.071 90.518 41.027 90.518L59.67 88.774C60.1064 88.7355 60.5213 88.5675 60.8614 88.2915C61.2016 88.0155 61.4515 87.6441 61.579 87.225L70.055 59.323C70.1595 58.9786 70.1778 58.6138 70.1082 58.2607C70.0386 57.9076 69.8834 57.577 69.656 57.298Z" fill="#E8E6E6"/>
<path d="M41.054 90.905C39.1 90.905 38.503 90.333 38.067 89.916C38.0262 89.8768 37.9849 89.8381 37.943 89.8L37.387 89.294C36.707 88.674 36.347 88.087 36.655 87.074L45.147 59.121C45.2953 58.6271 45.5887 58.1892 45.989 57.8641C46.3894 57.539 46.8782 57.3418 47.392 57.298L67.266 55.547C67.6867 55.5091 68.1102 55.5754 68.4993 55.7398C68.8884 55.9043 69.231 56.1619 69.497 56.49L69.956 57.054C70.5 57.722 70.675 58.612 70.424 59.436L61.948 87.338C61.7997 87.8319 61.5063 88.2698 61.106 88.5949C60.7057 88.92 60.2168 89.1172 59.703 89.161L41.063 90.905H41.054ZM67.495 56.312C67.442 56.312 67.389 56.315 67.336 56.319L47.462 58.07C47.1022 58.1005 46.7599 58.2385 46.4796 58.466C46.1992 58.6936 45.9938 59.0002 45.89 59.346L37.398 87.299C37.218 87.893 37.323 88.185 37.911 88.721L38.467 89.227L38.605 89.356C38.985 89.72 39.415 90.132 41.029 90.132L59.635 88.39C59.9951 88.3596 60.3377 88.2217 60.6183 87.9942C60.899 87.7666 61.1048 87.46 61.209 87.114L69.685 59.213C69.7711 58.9294 69.7862 58.6289 69.729 58.3381C69.6718 58.0473 69.5441 57.7749 69.357 57.545L68.898 56.981C68.7288 56.772 68.5149 56.6035 68.2722 56.4877C68.0295 56.372 67.7639 56.312 67.495 56.312Z" fill="#282B2D"/>
<path d="M30.857 86.266C30.7323 86.266 30.6095 86.236 30.4989 86.1784C30.3883 86.1208 30.2933 86.0373 30.2218 85.9352C30.1504 85.833 30.1046 85.7151 30.0885 85.5915C30.0723 85.4678 30.0862 85.3421 30.129 85.225C32.024 80.036 36.483 73.163 42.808 70.87C42.9989 70.8097 43.2058 70.8255 43.3853 70.9142C43.5648 71.0029 43.7032 71.1575 43.7713 71.3458C43.8395 71.534 43.8323 71.7414 43.7511 71.9244C43.67 72.1075 43.5213 72.2521 43.336 72.328C37.512 74.438 33.365 80.881 31.585 85.757C31.5302 85.9061 31.4311 86.0348 31.3009 86.1258C31.1708 86.2168 31.0158 86.2657 30.857 86.266Z" fill="#282B2D"/>
<path d="M41.835 90.118C41.5226 90.1186 41.2144 90.0453 40.9357 89.9042C40.6569 89.7631 40.4155 89.5581 40.231 89.306C40.0439 89.0555 39.9186 88.7643 39.8653 88.4562C39.812 88.1482 39.8321 87.8318 39.924 87.533L47.834 61.496C47.949 61.1132 48.1764 60.7738 48.4867 60.5219C48.7969 60.2699 49.1758 60.117 49.574 60.083L68.932 58.377C69.0864 58.3622 69.2419 58.3877 69.3834 58.4512C69.5249 58.5147 69.6474 58.6139 69.739 58.739C69.8237 58.8521 69.8804 58.9836 69.9046 59.1228C69.9287 59.262 69.9196 59.405 69.878 59.54L61.495 87.134C61.3801 87.5168 61.1528 87.8563 60.8425 88.1083C60.5322 88.3603 60.1533 88.5131 59.755 88.547L42.016 90.11C41.956 90.116 41.895 90.118 41.835 90.118Z" fill="white"/>
<path d="M69.017 58.567C69.242 58.567 69.449 58.672 69.585 58.855C69.6516 58.9438 69.6961 59.0471 69.7149 59.1565C69.7336 59.2658 69.7261 59.3781 69.693 59.484L61.31 87.078C61.2062 87.4238 61.0008 87.7304 60.7204 87.958C60.4401 88.1855 60.0978 88.3235 59.738 88.354L41.999 89.917C41.6903 89.9458 41.3795 89.894 41.0967 89.7668C40.814 89.6395 40.5692 89.4411 40.386 89.191C40.2168 88.9648 40.1035 88.7016 40.0555 88.4232C40.0076 88.1447 40.0262 87.8589 40.11 87.589L48.02 61.552C48.1238 61.2062 48.3293 60.8996 48.6096 60.672C48.8899 60.4445 49.2322 60.3065 49.592 60.276L68.951 58.57C68.9729 58.568 68.995 58.567 69.017 58.567ZM69.017 58.179C68.984 58.179 68.951 58.181 68.917 58.183L49.558 59.889C49.1216 59.9275 48.7067 60.0955 48.3666 60.3715C48.0264 60.6475 47.7765 61.0189 47.649 61.438L39.739 87.475C39.6346 87.8189 39.6161 88.1831 39.6852 88.5357C39.7543 88.8884 39.9088 89.2187 40.1352 89.4977C40.3617 89.7768 40.6531 89.996 40.9839 90.1362C41.3148 90.2765 41.675 90.3334 42.033 90.302L59.772 88.739C60.2084 88.7005 60.6233 88.5325 60.9634 88.2565C61.3036 87.9805 61.5535 87.6091 61.681 87.19L70.064 59.596C70.114 59.4322 70.1249 59.259 70.0959 59.0902C70.0669 58.9215 69.9988 58.7618 69.897 58.6241C69.7952 58.4864 69.6626 58.3744 69.5098 58.2971C69.357 58.2198 69.1882 58.1794 69.017 58.179Z" fill="#282B2D"/>
<path d="M46.884 63.994L44.632 61.805L44.902 61.528L47.026 63.593L69.45 61.617L69.484 62.003L46.884 63.994Z" fill="#282B2D"/>
<path d="M40.19 86.351L37.714 84.17L37.97 83.879L40.32 85.951L62.525 83.975L62.559 84.361L40.19 86.351Z" fill="#282B2D"/>
<path d="M69.797 88.285C69.6825 88.2849 69.5695 88.2595 69.4659 88.2106C69.3624 88.1617 69.271 88.0904 69.1983 88.002C69.1256 87.9136 69.0733 87.8102 69.0452 87.6992C69.0172 87.5882 69.014 87.4724 69.036 87.36C69.453 85.244 73.335 66.52 81.263 60.531C81.3442 60.4697 81.4366 60.4249 81.535 60.3993C81.6335 60.3737 81.736 60.3678 81.8368 60.3818C81.9375 60.3958 82.0345 60.4295 82.1222 60.481C82.21 60.5326 82.2867 60.6008 82.348 60.682C82.4093 60.7631 82.4541 60.8556 82.4797 60.954C82.5053 61.0525 82.5112 61.155 82.4972 61.2558C82.4832 61.3565 82.4495 61.4535 82.3979 61.5412C82.3464 61.629 82.2782 61.7057 82.197 61.767C76.131 66.35 72.026 80.199 70.557 87.66C70.5219 87.8359 70.4271 87.9942 70.2885 88.1081C70.15 88.2221 69.9763 88.2845 69.797 88.285Z" fill="#282B2D"/>
<path d="M114.406 59.948C115.354 59.295 116.494 59.276 117.116 59.853C117.847 59.122 118.077 58.127 117.61 57.449C117.062 56.653 115.759 56.598 114.702 57.326C113.645 58.055 113.233 59.29 113.781 60.087C113.838 60.17 113.907 60.238 113.978 60.305C114.11 60.1735 114.253 60.0541 114.406 59.948Z" fill="#282B2D"/>
<path d="M51.09 72.232C50.782 71.786 50.052 71.755 49.459 72.164C48.866 72.573 48.635 73.266 48.943 73.712C48.975 73.758 49.013 73.797 49.054 73.835C49.126 73.763 49.205 73.695 49.293 73.635C49.825 73.269 50.465 73.258 50.813 73.582C51.223 73.17 51.352 72.612 51.09 72.232Z" fill="#282B2D"/>
<path d="M59.259 72.716C59.791 72.35 60.431 72.339 60.779 72.663C61.189 72.253 61.319 71.695 61.056 71.315C60.748 70.869 60.018 70.838 59.425 71.247C58.832 71.656 58.601 72.349 58.909 72.795C58.941 72.841 58.979 72.88 59.02 72.918C59.092 72.845 59.171 72.777 59.259 72.716Z" fill="#282B2D"/>
<path d="M51.656 88.044C51.5609 88.0459 51.4664 88.0291 51.3779 87.9944C51.2893 87.9597 51.2085 87.9079 51.14 87.842C50.824 87.526 50.89 86.946 51.287 86.55C51.684 86.153 52.264 86.087 52.579 86.402C52.894 86.717 52.829 87.298 52.431 87.694C52.2566 87.8738 52.0291 87.9929 51.782 88.034C51.7404 88.0409 51.6982 88.0443 51.656 88.044ZM51.562 86.824C51.32 87.066 51.253 87.407 51.415 87.569C51.513 87.667 51.654 87.663 51.73 87.652C51.8939 87.623 52.0444 87.5428 52.16 87.423C52.402 87.181 52.469 86.84 52.308 86.678C52.145 86.515 51.804 86.582 51.562 86.824Z" fill="#282B2D"/>
<path d="M91.315 49.427C91.2206 49.4295 91.1267 49.4132 91.0388 49.3788C90.9508 49.3445 90.8707 49.2928 90.803 49.227C90.487 48.911 90.553 48.331 90.95 47.935C91.347 47.538 91.928 47.472 92.243 47.787C92.3231 47.8719 92.3822 47.9744 92.4155 48.0862C92.4488 48.198 92.4555 48.3161 92.435 48.431C92.3939 48.6781 92.2748 48.9056 92.095 49.08C91.8904 49.2933 91.6104 49.4179 91.315 49.427ZM91.224 48.209C90.982 48.451 90.916 48.792 91.077 48.954C91.239 49.116 91.58 49.048 91.822 48.806C91.9418 48.6904 92.0219 48.5399 92.051 48.376C92.062 48.3 92.066 48.159 91.968 48.061C91.807 47.899 91.465 47.967 91.224 48.209Z" fill="#282B2D"/>
<path d="M93.93 49.259C93.8356 49.2615 93.7417 49.2451 93.6538 49.2108C93.5658 49.1764 93.4857 49.1248 93.418 49.059C93.102 48.743 93.168 48.163 93.565 47.767C93.75 47.582 93.981 47.461 94.214 47.427C94.3289 47.4062 94.447 47.4128 94.5589 47.4461C94.6708 47.4795 94.7732 47.5387 94.858 47.619C95.174 47.935 95.108 48.515 94.71 48.911C94.5058 49.1249 94.2256 49.2499 93.93 49.259ZM93.839 48.041C93.597 48.283 93.531 48.624 93.692 48.786C93.854 48.948 94.195 48.88 94.437 48.638C94.679 48.396 94.746 48.055 94.585 47.893C94.488 47.795 94.346 47.799 94.27 47.81C94.1058 47.8403 93.9551 47.921 93.839 48.041Z" fill="#282B2D"/>
<path d="M96.545 49.091C96.4506 49.0935 96.3567 49.0771 96.2688 49.0428C96.1808 49.0084 96.1007 48.9568 96.033 48.891C95.9529 48.8061 95.8938 48.7036 95.8605 48.5918C95.8272 48.48 95.8205 48.3619 95.841 48.247C95.875 48.014 95.995 47.783 96.18 47.598C96.577 47.202 97.158 47.135 97.473 47.45C97.788 47.765 97.723 48.346 97.325 48.742C97.1215 48.957 96.841 49.0825 96.545 49.091ZM96.453 47.874C96.3332 47.9896 96.2531 48.1401 96.224 48.304C96.213 48.38 96.209 48.521 96.307 48.618C96.469 48.781 96.81 48.712 97.052 48.471C97.294 48.229 97.361 47.888 97.2 47.726C97.036 47.563 96.695 47.632 96.453 47.874Z" fill="#282B2D"/>
<path d="M95.263 61.507C96.211 60.854 97.351 60.835 97.973 61.412C98.704 60.681 98.934 59.686 98.467 59.008C97.919 58.212 96.616 58.157 95.559 58.885C94.502 59.614 94.09 60.849 94.638 61.646C94.695 61.729 94.764 61.797 94.835 61.864C94.964 61.736 95.105 61.615 95.263 61.507Z" fill="#282B2D"/>
<path d="M113.314 69.085C113.261 69.0849 113.209 69.0742 113.161 69.0534C113.112 69.0326 113.068 69.0022 113.032 68.964C111.497 67.34 109.142 66.578 106.397 66.818C106.295 66.8269 106.193 66.7948 106.114 66.7288C106.036 66.6628 105.986 66.5683 105.977 66.466L105.975 66.432C105.975 66.234 106.127 66.064 106.329 66.046C109.313 65.784 111.894 66.632 113.595 68.432C113.665 68.507 113.703 68.6066 113.7 68.7093C113.697 68.812 113.653 68.9093 113.579 68.98C113.507 69.0475 113.412 69.0851 113.314 69.085Z" fill="#282B2D"/>
<path d="M98.156 70.417C98.0767 70.4171 97.9993 70.3929 97.9343 70.3476C97.8693 70.3023 97.8197 70.2381 97.7923 70.1637C97.7649 70.0893 97.7611 70.0083 97.7812 69.9316C97.8014 69.8549 97.8446 69.7863 97.905 69.735C100.388 67.617 103.377 66.307 106.321 66.047C106.372 66.0425 106.423 66.048 106.471 66.0632C106.52 66.0785 106.565 66.1032 106.604 66.1359C106.643 66.1686 106.675 66.2086 106.699 66.2538C106.722 66.2989 106.737 66.3483 106.741 66.399L106.743 66.434C106.743 66.5308 106.706 66.6239 106.641 66.6951C106.575 66.7663 106.485 66.8105 106.389 66.819C103.603 67.064 100.769 68.31 98.408 70.325C98.3376 70.3847 98.2483 70.4173 98.156 70.417Z" fill="#282B2D"/>
<path d="M59.1 77.479C59.0472 77.479 58.9949 77.4682 58.9464 77.4472C58.8979 77.4262 58.8542 77.3955 58.818 77.357C58.018 76.509 56.783 76.112 55.338 76.236C55.2872 76.2407 55.236 76.2352 55.1873 76.2199C55.1386 76.2047 55.0934 76.1799 55.0544 76.1471C55.0153 76.1143 54.9831 76.074 54.9597 76.0287C54.9363 75.9834 54.9221 75.9338 54.918 75.883L54.916 75.849C54.916 75.65 55.068 75.481 55.27 75.463C56.954 75.316 58.415 75.8 59.381 76.824C59.4336 76.8788 59.469 76.948 59.4826 77.0228C59.4962 77.0976 59.4874 77.1747 59.4575 77.2446C59.4275 77.3144 59.3776 77.3739 59.314 77.4156C59.2505 77.4573 59.176 77.4794 59.1 77.479Z" fill="#282B2D"/>
<path d="M50.818 78.201C50.7385 78.2017 50.6607 78.1777 50.5953 78.1325C50.5298 78.0873 50.48 78.023 50.4525 77.9483C50.425 77.8737 50.4213 77.7924 50.4418 77.7155C50.4623 77.6387 50.506 77.57 50.567 77.519C51.953 76.339 53.621 75.61 55.267 75.466C55.3177 75.4613 55.3689 75.4667 55.4175 75.4819C55.4661 75.4971 55.5113 75.5218 55.5503 75.5545C55.5894 75.5872 55.6215 75.6274 55.645 75.6726C55.6685 75.7178 55.6827 75.7672 55.687 75.818L55.689 75.852C55.6887 75.9488 55.6522 76.0421 55.5867 76.1135C55.5212 76.1849 55.4315 76.2293 55.335 76.238C53.85 76.368 52.335 77.033 51.071 78.109C51.0001 78.1685 50.9105 78.2011 50.818 78.201Z" fill="#282B2D"/>
</svg>
